<?xml version="1.0" encoding="UTF-8"?>
<svg id="Camada_1" data-name="Camada 1" xmlns="http://www.w3.org/2000/svg" viewBox="0 0 43.13 31.31">
  <defs>
    <style>
      .cls-1, .cls-2 {
        fill: #fff;
      }

      .cls-2 {
        fill-rule: evenodd;
      }
    </style>
  </defs>
  <path class="cls-2" d="M22.5,4.31L6.75,13.31v15.75H1.12c-.3,0-.58.12-.8.33-.21.21-.33.5-.33.8s.12.58.33.8c.21.21.5.33.8.33h40.5c.3,0,.58-.12.8-.33.21-.21.33-.5.33-.8s-.12-.58-.33-.8c-.21-.21-.5-.33-.8-.33h-3.38v-15.75l-15.75-9ZM27,29.06v-12.38h6.75v12.38h-6.75ZM23.62,16.69h-12.38v6.75h12.38v-6.75Z"/>
  <path class="cls-1" d="M23.03.16c-.17-.1-.37-.16-.57-.16s-.4.05-.57.16L1.79,11.98l1.14,1.94L22.46,2.43l19.52,11.49,1.14-1.94-7.17-4.21V2.25c0-.3-.12-.58-.33-.8-.21-.21-.5-.33-.8-.33h-3.38c-.3,0-.58.12-.8.33-.21.21-.33.5-.33.8v2.2L23.03.16Z"/>
</svg>