<svg width="22" height="22" viewBox="0 0 22 22" fill="none" xmlns="http://www.w3.org/2000/svg">
<path d="M4.68418 18.7734C4.12408 18.7734 3.64476 18.5632 3.24624 18.1428C2.84772 17.7224 2.64812 17.2164 2.64744 16.6248V8.70183L1.62907 9.53441C1.40842 9.71346 1.15824 9.78508 0.878529 9.74927C0.598816 9.71346 0.373756 9.57022 0.203349 9.31955C0.0336204 9.08679 -0.0298581 8.82716 0.0129135 8.54068C0.055685 8.2542 0.187055 8.02144 0.407023 7.84239L9.57236 0.42972C9.75906 0.28648 9.95866 0.17905 10.1712 0.10743C10.3837 0.0358099 10.5999 0 10.8199 0C11.0398 0 11.252 0.0358099 11.4563 0.10743C11.6607 0.17905 11.8559 0.28648 12.0419 0.42972L19.6542 6.58009C19.9767 6.83076 20.0575 7.15305 19.8966 7.54696C19.7357 7.94087 19.4597 8.11096 19.0687 8.05725C18.6274 8.00353 18.182 8.00819 17.7326 8.07121C17.2831 8.13424 16.8374 8.25492 16.3954 8.43325C15.3771 8.02144 14.3288 7.92762 13.2507 8.15179C12.1726 8.37596 11.2265 8.91741 10.4125 9.77613C9.5985 10.6349 9.0849 11.6332 8.87172 12.7713C8.65854 13.9093 8.74782 15.0148 9.13955 16.0876C9.03771 16.3741 8.95285 16.6606 8.88496 16.9471C8.81707 17.2336 8.77464 17.529 8.75766 17.8334C8.74069 18.084 8.65175 18.3036 8.49085 18.4919C8.32995 18.6803 8.13035 18.7741 7.89205 18.7734H4.68418ZM16.3954 21.3249C15.6826 21.8441 14.8978 22.0636 14.041 21.9834C13.1842 21.9032 12.4499 21.5404 11.8382 20.8951C11.2265 20.2498 10.883 19.4756 10.8076 18.5725C10.7323 17.6694 10.94 16.8411 11.4309 16.0876C10.9387 15.3356 10.7309 14.5077 10.8076 13.6039C10.8844 12.7 11.2279 11.9254 11.8382 11.2801C12.4486 10.6349 13.1828 10.2725 14.041 10.193C14.8991 10.1135 15.6839 10.3326 16.3954 10.8504C17.1083 10.3312 17.8935 10.112 18.7509 10.193C19.6084 10.2739 20.3423 10.6363 20.9527 11.2801C21.563 11.924 21.9069 12.6986 21.9843 13.6039C22.0617 14.5091 21.8536 15.3371 21.36 16.0876C21.8522 16.8396 22.0603 17.6679 21.9843 18.5725C21.9082 19.4771 21.5644 20.2513 20.9527 20.8951C20.341 21.539 19.607 21.9018 18.7509 21.9834C17.8948 22.065 17.1097 21.8455 16.3954 21.3249ZM16.3954 17.4305C16.7519 17.4305 17.0533 17.3005 17.2998 17.0405C17.5462 16.7806 17.6691 16.4629 17.6684 16.0876C17.6677 15.7124 17.5445 15.3944 17.2987 15.1337C17.053 14.873 16.7519 14.7433 16.3954 14.7448C16.039 14.7462 15.7376 14.8762 15.4911 15.1347C15.2447 15.3933 15.1218 15.7109 15.1225 16.0876C15.1232 16.4644 15.2464 16.7824 15.4922 17.0416C15.7379 17.3009 16.039 17.4305 16.3954 17.4305Z" fill="white"/>
</svg>
