<svg width="23" height="21" viewBox="0 0 23 21" fill="none" xmlns="http://www.w3.org/2000/svg">
<path d="M11.5 19.8333C10.81 19.8333 10.2638 20.0278 9.86125 20.4167C9.45875 20.8056 8.72083 21 7.6475 21C6.57417 21 5.83625 20.8056 5.43375 20.4167C5.03125 20.0278 4.485 19.8333 3.795 19.8333C3.23917 19.8333 2.8175 19.9648 2.53 20.2277C2.2425 20.4906 1.79209 20.6994 1.17875 20.8542C0.872087 20.9319 0.599154 20.8639 0.359954 20.65C0.120754 20.4361 0.000770474 20.1639 3.80795e-06 19.8333C-0.000762859 19.5028 0.114237 19.2162 0.345004 18.9735C0.57577 18.7308 0.83452 18.5313 1.12125 18.375C1.44709 18.2 1.79209 18.0102 2.15625 17.8057C2.52042 17.6011 3.06667 17.4992 3.795 17.5C4.86834 17.5 5.60625 17.6944 6.00875 18.0833C6.41125 18.4722 6.9575 18.6667 7.6475 18.6667C8.3375 18.6667 8.88375 18.4722 9.28625 18.0833C9.68875 17.6944 10.4267 17.5 11.5 17.5C12.5733 17.5 13.3113 17.6944 13.7138 18.0833C14.1163 18.4722 14.6625 18.6667 15.3525 18.6667C16.0425 18.6667 16.5887 18.4722 16.9912 18.0833C17.3937 17.6944 18.1317 17.5 19.205 17.5C19.9333 17.5 20.4796 17.6023 20.8438 17.8068C21.2079 18.0114 21.5529 18.2008 21.8787 18.375C22.1662 18.5306 22.425 18.7301 22.655 18.9735C22.885 19.2169 23 19.5036 23 19.8333C23 20.1631 22.8804 20.4353 22.6412 20.65C22.402 20.8647 22.1287 20.9327 21.8212 20.8542C21.2079 20.6986 20.7575 20.4898 20.47 20.2277C20.1825 19.9656 19.7608 19.8341 19.205 19.8333C18.515 19.8333 17.9687 20.0278 17.5662 20.4167C17.1637 20.8056 16.4258 21 15.3525 21C14.2792 21 13.5413 20.8056 13.1388 20.4167C12.7363 20.0278 12.19 19.8333 11.5 19.8333ZM11.5 14.5833C10.7717 14.5833 10.23 14.7778 9.87505 15.1667C9.52008 15.5556 8.77757 15.75 7.6475 15.75C6.51744 15.75 5.76495 15.5556 5.39005 15.1667C5.01515 14.7778 4.48347 14.5833 3.795 14.5833C3.23917 14.5833 2.8175 14.7148 2.53 14.9777C2.2425 15.2406 1.79209 15.4494 1.17875 15.6042C0.872087 15.6819 0.599154 15.6139 0.359954 15.4C0.120754 15.1861 0.000770474 14.9139 3.80795e-06 14.5833C-0.000762859 14.2528 0.114237 13.9662 0.345004 13.7235C0.57577 13.4808 0.83452 13.2813 1.12125 13.125C1.44709 12.95 1.79209 12.7602 2.15625 12.5557C2.52042 12.3511 3.06667 12.2492 3.795 12.25C4.86834 12.25 5.61124 12.4444 6.0237 12.8333C6.43617 13.2222 6.97744 13.4167 7.6475 13.4167C8.3375 13.4167 8.88375 13.2222 9.28625 12.8333C9.68875 12.4444 10.4267 12.25 11.5 12.25C12.5733 12.25 13.3113 12.4444 13.7138 12.8333C14.1163 13.2222 14.6625 13.4167 15.3525 13.4167C16.0425 13.4167 16.5887 13.2222 16.9912 12.8333C17.3937 12.4444 18.1317 12.25 19.205 12.25C19.9333 12.25 20.4796 12.3523 20.8438 12.5568C21.2079 12.7614 21.5529 12.9508 21.8787 13.125C22.1662 13.2806 22.425 13.4801 22.655 13.7235C22.885 13.9669 23 14.2536 23 14.5833C23 14.9131 22.8804 15.1853 22.6412 15.4C22.402 15.6147 22.1287 15.6827 21.8212 15.6042C21.2079 15.4486 20.7575 15.2398 20.47 14.9777C20.1825 14.7156 19.7608 14.5841 19.205 14.5833C18.515 14.5833 17.9829 14.7778 17.6088 15.1667C17.2347 15.5556 16.4826 15.75 15.3525 15.75C14.26 15.75 13.5175 15.5556 13.125 15.1667C12.7324 14.7778 12.1908 14.5833 11.5 14.5833ZM5.635 9.8L9.45875 5.92083L8.30875 4.75417C7.82959 4.26806 7.33624 3.88383 6.8287 3.6015C6.32117 3.31917 5.74119 3.12978 5.08875 3.03333C4.70542 2.95556 4.37499 2.77083 4.09745 2.47917C3.81992 2.1875 3.68077 1.84722 3.68 1.45833C3.68 1.05 3.82375 0.704668 4.11125 0.422335C4.39875 0.140002 4.73417 0.0186682 5.1175 0.0583348C6.1525 0.155557 7.04375 0.374501 7.79125 0.715168C8.53875 1.05583 9.27667 1.59522 10.005 2.33333L17.365 9.8C17.0392 10.0139 16.7229 10.1842 16.4162 10.311C16.1096 10.4378 15.755 10.5008 15.3525 10.5C14.6625 10.5 14.1163 10.3056 13.7138 9.91667C13.3113 9.52778 12.5733 9.33333 11.5 9.33333C10.4267 9.33333 9.68875 9.52778 9.28625 9.91667C8.88375 10.3056 8.3375 10.5 7.6475 10.5C7.245 10.5 6.89042 10.437 6.58375 10.311C6.27709 10.185 5.96084 10.0147 5.635 9.8ZM16.905 1.57871e-06C17.71 1.57871e-06 18.3904 0.287001 18.9463 0.861001C19.5021 1.435 19.78 2.12022 19.78 2.91667C19.78 3.73333 19.5021 4.42361 18.9463 4.9875C18.3904 5.55139 17.71 5.83333 16.905 5.83333C16.1 5.83333 15.4196 5.55139 14.8638 4.9875C14.3079 4.42361 14.03 3.73333 14.03 2.91667C14.03 2.11945 14.3079 1.43383 14.8638 0.859835C15.4196 0.285835 16.1 -0.000776199 16.905 1.57871e-06Z" fill="#374A8C"/>
</svg>
