<svg width="40" height="23" viewBox="0 0 40 23" fill="none" xmlns="http://www.w3.org/2000/svg">
<path d="M22.3984 0.809482L16.4984 8.66948L20.9984 14.6695C21.6584 15.5495 21.4784 16.8095 20.5984 17.4695C20.3889 17.6286 20.1499 17.7446 19.8952 17.8106C19.6405 17.8767 19.3753 17.8916 19.1148 17.8544C18.8544 17.8171 18.6039 17.7286 18.3779 17.5939C18.152 17.4592 17.955 17.2809 17.7984 17.0695C15.6984 14.2695 13.1784 10.9295 11.5984 8.78948C10.7984 7.72948 9.1984 7.72948 8.3984 8.78948L0.398398 19.4495C-0.581602 20.7895 0.358397 22.6695 1.9984 22.6695H37.9984C39.6384 22.6695 40.5784 20.7895 39.5984 19.4695L25.5984 0.809482C25.4139 0.558533 25.1729 0.354507 24.895 0.213888C24.617 0.0732693 24.3099 0 23.9984 0C23.6869 0 23.3798 0.0732693 23.1018 0.213888C22.8239 0.354507 22.5829 0.558533 22.3984 0.809482Z" fill="white"/>
</svg>
