<svg width="40" height="40" viewBox="0 0 40 40" fill="none" xmlns="http://www.w3.org/2000/svg">
<circle cx="20" cy="20" r="20" fill="#374A8C"/>
<path d="M11.064 15.51C11.8964 13.8535 13.1728 12.4611 14.7508 11.4881C16.3288 10.5151 18.1462 9.99987 20 10C22.695 10 24.959 10.991 26.69 12.605L23.823 15.473C22.786 14.482 21.468 13.977 20 13.977C17.395 13.977 15.19 15.737 14.405 18.1C14.205 18.7 14.091 19.34 14.091 20C14.091 20.66 14.205 21.3 14.405 21.9C15.191 24.264 17.395 26.023 20 26.023C21.345 26.023 22.49 25.668 23.386 25.068C23.9054 24.726 24.3501 24.2822 24.6932 23.7635C25.0363 23.2448 25.2706 22.6619 25.382 22.05H20V18.182H29.418C29.536 18.836 29.6 19.518 29.6 20.227C29.6 23.273 28.51 25.837 26.618 27.577C24.964 29.105 22.7 30 20 30C18.6866 30.0005 17.386 29.7422 16.1725 29.2399C14.9591 28.7375 13.8565 28.0009 12.9278 27.0722C11.9991 26.1436 11.2625 25.0409 10.7601 23.8275C10.2578 22.614 9.99948 21.3134 10 20C10 18.386 10.386 16.86 11.064 15.51Z" fill="white"/>
</svg>
