<svg width="40" height="40" viewBox="0 0 40 40" fill="none" xmlns="http://www.w3.org/2000/svg">
<circle cx="20" cy="20" r="20" fill="#374A8C"/>
<path d="M21.0276 10C22.1526 10.003 22.7236 10.009 23.2166 10.023L23.4106 10.03C23.6346 10.038 23.8556 10.048 24.1226 10.06C25.1866 10.11 25.9126 10.278 26.5496 10.525C27.2096 10.779 27.7656 11.123 28.3216 11.678C28.8303 12.1777 29.2238 12.7825 29.4746 13.45C29.7216 14.087 29.8896 14.813 29.9396 15.878C29.9516 16.144 29.9616 16.365 29.9696 16.59L29.9756 16.784C29.9906 17.276 29.9966 17.847 29.9986 18.972L29.9996 19.718V21.028C30.002 21.7574 29.9944 22.4868 29.9766 23.216L29.9706 23.41C29.9626 23.635 29.9526 23.856 29.9406 24.122C29.8906 25.187 29.7206 25.912 29.4746 26.55C29.2238 27.2175 28.8303 27.8223 28.3216 28.322C27.8219 28.8307 27.2171 29.2242 26.5496 29.475C25.9126 29.722 25.1866 29.89 24.1226 29.94L23.4106 29.97L23.2166 29.976C22.7236 29.99 22.1526 29.997 21.0276 29.999L20.2816 30H18.9726C18.2429 30.0026 17.5131 29.9949 16.7836 29.977L16.5896 29.971C16.3522 29.962 16.1149 29.9517 15.8776 29.94C14.8136 29.89 14.0876 29.722 13.4496 29.475C12.7824 29.2241 12.178 28.8306 11.6786 28.322C11.1695 27.8224 10.7757 27.2176 10.5246 26.55C10.2776 25.913 10.1096 25.187 10.0596 24.122L10.0296 23.41L10.0246 23.216C10.0062 22.4868 9.99782 21.7574 9.99959 21.028V18.972C9.99682 18.2426 10.0042 17.5132 10.0216 16.784L10.0286 16.59C10.0366 16.365 10.0466 16.144 10.0586 15.878C10.1086 14.813 10.2766 14.088 10.5236 13.45C10.7753 12.7822 11.1698 12.1774 11.6796 11.678C12.1787 11.1695 12.7828 10.7761 13.4496 10.525C14.0876 10.278 14.8126 10.11 15.8776 10.06C16.1436 10.048 16.3656 10.038 16.5896 10.03L16.7836 10.024C17.5128 10.0062 18.2422 9.99857 18.9716 10.001L21.0276 10ZM19.9996 15C18.6735 15 17.4017 15.5268 16.4641 16.4645C15.5264 17.4021 14.9996 18.6739 14.9996 20C14.9996 21.3261 15.5264 22.5979 16.4641 23.5355C17.4017 24.4732 18.6735 25 19.9996 25C21.3257 25 22.5974 24.4732 23.5351 23.5355C24.4728 22.5979 24.9996 21.3261 24.9996 20C24.9996 18.6739 24.4728 17.4021 23.5351 16.4645C22.5974 15.5268 21.3257 15 19.9996 15ZM19.9996 17C20.3936 16.9999 20.7837 17.0775 21.1477 17.2282C21.5117 17.3789 21.8424 17.5998 22.1211 17.8783C22.3997 18.1569 22.6207 18.4875 22.7715 18.8515C22.9224 19.2154 23 19.6055 23.0001 19.9995C23.0002 20.3935 22.9226 20.7836 22.7719 21.1476C22.6212 21.5116 22.4003 21.8423 22.1218 22.121C21.8432 22.3996 21.5126 22.6206 21.1486 22.7714C20.7847 22.9223 20.3946 22.9999 20.0006 23C19.2049 23 18.4419 22.6839 17.8793 22.1213C17.3167 21.5587 17.0006 20.7956 17.0006 20C17.0006 19.2044 17.3167 18.4413 17.8793 17.8787C18.4419 17.3161 19.2049 17 20.0006 17M25.2506 13.5C24.9191 13.5 24.6011 13.6317 24.3667 13.8661C24.1323 14.1005 24.0006 14.4185 24.0006 14.75C24.0006 15.0815 24.1323 15.3995 24.3667 15.6339C24.6011 15.8683 24.9191 16 25.2506 16C25.5821 16 25.9001 15.8683 26.1345 15.6339C26.3689 15.3995 26.5006 15.0815 26.5006 14.75C26.5006 14.4185 26.3689 14.1005 26.1345 13.8661C25.9001 13.6317 25.5821 13.5 25.2506 13.5Z" fill="white"/>
</svg>
