<svg width="20" height="20" viewBox="0 0 20 20" fill="none" xmlns="http://www.w3.org/2000/svg">
<path d="M13.333 8.3314C13.333 8.11038 13.2452 7.89842 13.0889 7.74214C12.9326 7.58586 12.7207 7.49807 12.4996 7.49807H7.49979C7.27879 7.49807 7.06683 7.58586 6.91055 7.74214C6.75428 7.89842 6.66648 8.11038 6.66648 8.3314C6.66648 8.55241 6.75428 8.76437 6.91055 8.92065C7.06683 9.07693 7.27879 9.16473 7.49979 9.16473H12.4996C12.7207 9.16473 12.9326 9.07693 13.0889 8.92065C13.2452 8.76437 13.333 8.55241 13.333 8.3314ZM12.4996 10.8314C12.7207 10.8314 12.9326 10.9192 13.0889 11.0755C13.2452 11.2318 13.333 11.4437 13.333 11.6647C13.333 11.8857 13.2452 12.0977 13.0889 12.254C12.9326 12.4103 12.7207 12.4981 12.4996 12.4981H9.16641C8.9454 12.4981 8.73345 12.4103 8.57717 12.254C8.4209 12.0977 8.3331 11.8857 8.3331 11.6647C8.3331 11.4437 8.4209 11.2318 8.57717 11.0755C8.73345 10.9192 8.9454 10.8314 9.16641 10.8314H12.4996ZM19.9994 9.99806C19.999 7.79648 19.2721 5.65656 17.9314 3.91028C16.5907 2.164 14.7113 0.908968 12.5846 0.339872C10.4579 -0.229223 8.20281 -0.0805683 6.16922 0.762775C4.13562 1.60612 2.43716 3.09701 1.33731 5.00417C0.237471 6.91133 -0.202278 9.12815 0.0862885 11.3107C0.374853 13.4933 1.3756 15.5197 2.93329 17.0755C4.49097 18.6313 6.51852 19.6295 8.70141 19.9153C10.8843 20.2012 13.1005 19.7586 15.0062 18.6564L18.9028 19.9564C19.0467 20.0045 19.2011 20.0123 19.3492 19.979C19.4973 19.9458 19.6335 19.8728 19.7431 19.7678C19.8527 19.6628 19.9315 19.5299 19.9711 19.3834C20.0107 19.2368 20.0096 19.0823 19.9678 18.9364L18.7811 14.7847C19.5811 13.3161 19.9999 11.6704 19.9994 9.99806ZM9.99972 1.66474C11.471 1.66464 12.9162 2.05412 14.1882 2.79358C15.4602 3.53304 16.5137 4.59611 17.2418 5.87473C17.9698 7.15336 18.3463 8.60195 18.333 10.0733C18.3197 11.5446 17.9171 12.9861 17.1662 14.2514C17.1084 14.3491 17.0712 14.4577 17.0569 14.5703C17.0425 14.6829 17.0514 14.7973 17.0828 14.9064L17.9312 17.8731L15.1679 16.9531C15.0505 16.9139 14.9259 16.9014 14.8031 16.9163C14.6803 16.9313 14.5624 16.9735 14.4579 17.0397C13.3658 17.7309 12.128 18.1585 10.8421 18.2889C9.55633 18.4193 8.25782 18.2487 7.04925 17.7908C5.84068 17.3329 4.75518 16.6001 3.87855 15.6505C3.00193 14.7008 2.3582 13.5602 1.99827 12.3189C1.63833 11.0776 1.57205 9.76957 1.80466 8.49823C2.03726 7.22689 2.56239 6.02708 3.33852 4.99364C4.11465 3.9602 5.12051 3.12146 6.2766 2.54371C7.43269 1.96596 8.70731 1.66504 9.99972 1.66474Z" fill="#304383"/>
</svg>
