<svg width="1879" height="573" viewBox="0 0 1879 573" fill="none" xmlns="http://www.w3.org/2000/svg">
<g clip-path="url(#clip0_64_130)">
<path d="M-103.168 -51.4006L1595.66 -257.716L1665.71 319.102L1556.26 349.153C1462.9 374.788 1366.3 386.728 1269.5 384.599L1148.34 381.935L806.189 362.43C677.204 355.077 549.154 388.297 440.011 457.428V457.428C352.02 513.162 251.38 545.773 147.424 552.237L-28.5296 563.178L-103.168 -51.4006Z" fill="#F39200"/>
<path d="M-2.99995 -180.27L1882 -207L1882 379L1639.63 410.774C1552.76 422.161 1464.77 422.084 1377.93 410.544L1234.26 391.454L882.708 332.668C751.372 310.707 616.466 328.815 495.571 384.634V384.634C398.022 429.674 290.986 450.323 183.683 444.801L0.0279469 435.35L-2.99995 -180.27Z" fill="url(#paint0_linear_64_130)"/>
<path fill-rule="evenodd" clip-rule="evenodd" d="M893.169 152.139L940.415 152.184L940.466 221.826L897.283 189.49L893.169 152.139ZM890.755 128.217L992.322 128.563L990.528 150.488L892.783 150.511L890.748 128.217H890.755ZM990.244 152.139L942.997 152.184L942.946 221.826L986.539 189.512L990.244 152.132V152.139ZM990.827 179.131L991.885 167.429C992.06 166.153 992.176 164.787 992.235 163.474C992.293 162.198 992.585 160.877 992.643 159.555C992.643 158.234 992.876 156.958 992.993 155.637L993.227 152.732C993.285 152.29 993.343 152.162 993.343 151.809C993.577 149.167 993.752 146.532 993.992 143.845C994.109 142.659 994.342 141.293 994.401 139.927L994.751 136.099C994.868 134.823 995.101 133.412 995.101 132.181C995.159 130.859 995.334 129.538 995.451 128.225C995.626 126.731 996.042 125.275 994.277 125.32C990.696 125.41 986.991 125.275 983.41 125.275C965.257 125.275 947.162 125.095 929.009 125.095C921.723 125.095 914.612 124.922 907.326 124.922H896.4C893.877 124.922 890.704 124.832 888.173 124.922C887.349 124.922 886.824 125.365 886.882 126.243L888.706 142.652C888.764 143.094 888.822 143.44 888.881 143.838C888.997 144.671 889.056 145.511 889.172 146.345C889.231 147.223 889.406 147.973 889.406 148.897C889.464 149.512 889.523 150.923 889.639 151.449L890.813 161.432C890.872 162.22 890.988 163.188 891.105 163.984L894.219 191.614L900.506 196.366C901.097 196.763 901.564 197.116 902.096 197.552C902.979 198.257 905.736 200.239 906.859 201.072C907.384 201.47 907.916 201.86 908.441 202.258L913.204 205.778C913.795 206.221 914.145 206.484 914.794 206.964L917.967 209.336C918.499 209.734 918.966 210.042 919.556 210.477L937.009 223.455C937.476 223.853 938.009 224.243 938.534 224.596C941.174 226.36 941.706 227.944 943.88 226.27C944.347 225.917 944.879 225.519 945.404 225.084C946.403 224.296 947.461 223.545 948.577 222.712L954.864 217.961C958.919 214.966 963.324 211.581 967.437 208.458L989.529 191.832C989.791 191.539 990.783 179.777 990.82 179.116L990.827 179.131Z" fill="white"/>
<path fill-rule="evenodd" clip-rule="evenodd" d="M938.293 163.834C938.293 163.834 930.482 162.513 926.31 162.032C924.662 161.86 923.845 162.205 923.845 162.205C923.845 162.205 921.847 162.776 920.789 164.232C919.673 165.816 919.498 168.323 919.498 168.323L899.288 165.11C899.288 165.11 899.937 169.689 907.457 173.292C912.978 175.934 915.268 177.247 915.268 177.247L905.867 191.059C905.867 191.059 920.082 188.462 923.612 182.922C926.376 178.523 925.902 171.393 925.902 171.393C925.902 171.393 926.018 168.533 926.843 166.641C927.55 164.967 928.958 164.262 928.958 164.262C928.958 164.262 930.664 163.646 932.422 163.556C935.128 163.421 938.3 163.819 938.3 163.819" fill="white"/>
<path fill-rule="evenodd" clip-rule="evenodd" d="M964.943 176.587C964.002 176.369 961.304 175.003 961.829 174.08C962.237 173.727 962.828 174.08 963.535 173.637C964.002 173.374 964.476 173.682 964.418 172.271C963.477 171.873 962.653 171.61 961.778 172.226C961.187 172.669 960.195 173.194 960.129 174.117C960.013 175.303 961.654 176.534 962.478 177.067C962.77 177.24 963.302 177.465 963.535 177.728C963.302 178.298 960.129 179.312 963.419 181.684C963.302 182.126 962.952 182.254 962.886 182.787C962.595 184.679 964.177 185.159 964.826 185.782C964.71 185.955 962.478 187.846 964.885 188.642C964.71 189.302 964.826 189.437 965.293 189.918L965.468 190.136C965.468 190.181 965.527 190.181 965.527 190.226L965.585 190.271C965.468 190.578 965.235 190.713 965.06 190.886L965.585 190.713C965.585 191.419 965.527 192.387 965.76 192.913L965.877 190.541C966.285 190.586 966.343 190.804 966.701 190.894L966.176 190.278C966.883 189.708 967 189.663 966.825 188.739C967.292 188.387 968.057 188.169 967.882 187.373C967.766 186.54 967.292 186.232 966.941 185.789C967.591 184.994 968.998 185.174 968.706 182.84C968.59 182.269 968.415 182.006 968.116 181.699L968.648 181.346C969.115 181.083 969.647 180.378 969.589 179.672C969.589 178.569 968.765 178.178 968.065 177.735C968.298 177.473 968.947 177.293 969.647 176.677C969.822 176.504 969.997 176.414 970.18 176.279L971.062 175.311C971.587 174.388 971.412 173.464 970.595 172.849C968.947 171.618 968.947 171.528 967.306 172.323L967.073 172.414L967.014 172.459C967.014 173.337 967.364 173.337 967.955 173.69C968.546 174.042 969.188 173.645 969.662 174.132C970.129 175.056 967.547 176.549 966.548 176.685C966.606 174.44 966.956 171.58 966.956 169.246C966.956 168.368 967.073 167.662 967.073 166.829C967.131 166.258 967.131 163.526 967.306 163.136C967.539 162.783 967.598 162.738 967.773 162.258C968.364 160.058 965.891 157.769 964.25 159.968C963.9 160.449 963.659 161.244 963.842 162.078C964.017 163.001 964.433 162.911 964.433 164.059C964.433 164.937 964.433 165.733 964.491 166.566C964.608 168.195 964.666 169.952 964.724 171.535C964.783 173.164 965.016 175.056 964.958 176.594M965.074 178.794L965.133 180.55C964.425 180.505 963.725 180.415 963.783 179.717C963.9 179.147 964.491 178.884 965.074 178.794ZM966.424 180.55L966.482 178.659C967.131 178.831 968.189 179.319 967.656 180.07C967.423 180.468 966.832 180.513 966.424 180.55ZM965.249 182.532L965.308 184.596C965.016 184.423 964.367 183.845 964.25 183.493C964.075 182.832 964.717 182.352 965.249 182.524V182.532ZM967.955 166.431C968.954 166.521 970.012 166.386 970.953 166.258L977.59 165.2C979.296 164.892 982.112 163.969 983.526 163.264L984.992 162.385C985.167 162.25 985.226 162.25 985.459 162.078C985.809 161.86 986.925 160.892 987.108 160.584C986.816 160.719 986.4 160.756 985.992 160.937C985.642 161.109 985.167 161.154 984.759 161.289C983.351 161.77 978.589 162.701 977.065 162.963L968.721 163.887C968.189 164.059 968.189 164.284 968.072 164.855C967.955 165.335 968.014 165.913 967.955 166.439V166.431ZM963.608 166.213L963.375 164.059C963.317 163.969 963.375 163.969 963.317 163.924L963.258 163.789C963.2 163.526 961.143 163.571 960.735 163.526C958.911 163.391 954.98 162.956 953.39 162.693C951.8 162.43 950.276 162.078 948.752 161.815L945.463 160.982C945.054 160.892 944.755 160.674 944.347 160.629C944.697 161.244 947.169 162.873 947.986 163.226C950.451 164.284 950.276 164.149 952.625 164.81C954.207 165.253 962.201 166.529 963.608 166.221V166.213ZM949.685 164.892C949.802 164.952 949.919 165.01 950.035 165.065C950.502 165.373 951.56 166.168 952.442 166.476C953.441 166.874 954.557 167.354 955.732 167.58C957.023 167.797 962.609 168.593 963.659 168.24C963.718 167.887 963.601 166.964 963.543 166.611C960.195 166.521 956.14 166.258 952.909 165.508C951.968 165.335 951.027 165.2 950.087 164.892C949.795 164.757 949.795 164.802 949.678 164.892H949.685ZM967.897 168.413C968.954 168.675 974.242 168.105 975.708 167.707C976.824 167.399 978.056 167.092 978.997 166.604C979.588 166.341 981.346 165.418 981.703 164.847L978.18 165.681C976.007 166.123 972.718 166.649 970.544 166.739C968.138 166.829 967.839 166.649 967.904 168.413H967.897ZM967.722 170.304C969.604 170.567 974.067 170.087 976.007 169.201C976.24 169.066 977.772 168.188 978.005 167.925C977.181 168.015 976.182 168.368 975.424 168.495C974.541 168.668 973.484 168.803 972.659 168.893C971.602 169.028 968.604 168.938 968.196 169.111C967.605 169.328 967.729 169.636 967.729 170.297L967.722 170.304ZM962.784 170.169L963.9 170.214C964.017 169.861 963.9 169.246 963.783 168.848C960.02 168.803 959.495 168.938 955.732 168.323C955.024 168.188 954.207 167.925 953.5 167.88C953.5 167.88 953.558 167.88 953.558 167.925H953.617L954.382 168.45C954.732 168.585 955.031 168.758 955.382 168.931C956.439 169.501 957.555 169.719 958.729 169.854C960.137 169.989 961.019 170.162 962.784 170.162V170.169ZM966.19 184.731L966.249 182.487C966.839 182.397 967.539 182.795 967.364 183.5C967.248 183.98 966.599 184.558 966.19 184.731Z" fill="white"/>
<path fill-rule="evenodd" clip-rule="evenodd" d="M979.872 133.727V139.049H982.753C983.461 139.049 983.986 138.914 984.219 138.696C984.569 138.388 984.752 137.863 984.752 137.112H985.16V141.773H984.752C984.693 141.113 984.577 140.715 984.518 140.497C984.402 140.28 984.226 140.1 983.927 139.972C983.694 139.837 983.278 139.799 982.753 139.799H979.872V144.198C979.872 144.813 979.872 145.166 979.931 145.301C979.989 145.436 980.047 145.519 980.222 145.609C980.339 145.699 980.573 145.744 980.93 145.744H983.162C983.869 145.744 984.394 145.699 984.752 145.572C985.102 145.482 985.401 145.264 985.751 144.956C986.101 144.513 986.517 143.898 986.925 143.11H987.333L986.218 146.45H976.109V146.097H976.576C976.867 146.097 977.167 146.007 977.458 145.879C977.692 145.744 977.808 145.617 977.867 145.399C977.925 145.181 977.983 144.738 977.983 144.078V135.371C977.983 134.493 977.925 133.96 977.75 133.787C977.517 133.524 977.101 133.389 976.576 133.389H976.109V132.991H986.218L986.334 135.986H985.984C985.867 135.236 985.692 134.755 985.517 134.493C985.342 134.23 985.109 134.05 984.81 133.922C984.518 133.787 984.102 133.749 983.461 133.749H979.88L979.872 133.727ZM961.187 132.976H964.709L972.761 143.095V135.348C972.761 134.515 972.645 133.982 972.47 133.764C972.236 133.502 971.82 133.367 971.354 133.367H970.887V132.969H975.467V133.367H975C974.41 133.367 974.06 133.539 973.826 133.892C973.651 134.11 973.593 134.553 973.593 135.341V146.645H973.243L964.607 135.821V144.093C964.607 144.926 964.724 145.459 964.899 145.677C965.133 145.939 965.49 146.074 966.015 146.074H966.482V146.427H961.902V146.074H962.368C962.959 146.074 963.309 145.902 963.543 145.549C963.718 145.331 963.776 144.843 963.776 144.1V134.77C963.368 134.29 963.127 133.982 962.893 133.847C962.718 133.712 962.427 133.584 962.011 133.449C961.836 133.404 961.544 133.359 961.187 133.359V132.961V132.976ZM954.192 133.419C953.018 133.419 952.136 133.862 951.37 134.74C950.487 135.881 950.079 137.51 950.079 139.627C950.079 141.743 950.546 143.545 951.428 144.731C952.136 145.609 953.077 146.052 954.251 146.052C955.425 146.052 956.483 145.572 957.248 144.603C958.073 143.59 958.481 142.051 958.481 139.942C958.481 137.608 958.014 135.896 957.132 134.793C956.424 133.87 955.483 133.427 954.192 133.427V133.419ZM954.426 132.714C956.074 132.714 957.54 133.374 958.831 134.695C960.064 136.016 960.654 137.69 960.654 139.664C960.654 141.638 960.064 143.402 958.773 144.723C957.54 146.09 956.009 146.75 954.251 146.75C952.493 146.75 950.903 146.09 949.729 144.768C948.496 143.492 947.847 141.773 947.847 139.664C947.847 137.555 948.555 135.791 949.962 134.432C951.195 133.292 952.668 132.714 954.426 132.714ZM946.906 132.976L947.023 136.144H946.673C946.615 135.618 946.498 135.221 946.381 134.958C946.206 134.56 945.915 134.297 945.616 134.125C945.265 133.952 944.791 133.862 944.266 133.862H942.443V144.115C942.443 144.949 942.501 145.482 942.676 145.699C942.91 145.962 943.325 146.097 943.792 146.097H944.259V146.45H938.738V146.097H939.205C939.737 146.097 940.146 145.924 940.379 145.572C940.496 145.354 940.554 144.866 940.554 144.123V133.87H939.03C938.381 133.87 937.972 133.915 937.68 134.005C937.389 134.14 937.09 134.357 936.856 134.71C936.623 135.108 936.448 135.543 936.448 136.159H936.039L936.214 132.991H946.906V132.976ZM927.521 139.529H928.046C929.337 139.529 930.278 139.266 930.868 138.696C931.518 138.171 931.868 137.465 931.868 136.587C931.868 135.709 931.576 135.093 931.102 134.56C930.569 134.035 929.869 133.772 929.045 133.772C928.695 133.772 928.163 133.817 927.521 133.945V139.529ZM936.805 146.435H933.341L928.936 140.145C928.586 140.19 928.287 140.19 928.112 140.19H927.82C927.761 140.19 927.645 140.19 927.528 140.145V144.063C927.528 144.941 927.645 145.429 927.82 145.647C928.053 145.954 928.411 146.09 928.936 146.09H929.402V146.442H923.823V146.09H924.29C924.881 146.09 925.231 145.917 925.464 145.519C925.639 145.346 925.697 144.859 925.697 144.07V135.401C925.697 134.523 925.581 133.99 925.406 133.817C925.172 133.509 924.815 133.374 924.29 133.374H923.823V132.976H928.578C929.986 132.976 930.985 133.111 931.634 133.329C932.283 133.502 932.867 133.9 933.341 134.47C933.808 134.995 934.048 135.701 934.048 136.452C934.048 137.285 933.757 137.99 933.224 138.606C932.692 139.221 931.875 139.664 930.817 139.882L933.523 143.755C934.114 144.633 934.639 145.249 935.113 145.512C935.522 145.819 936.112 145.992 936.82 146.082V146.435H936.805ZM916.245 133.412C915.071 133.412 914.13 133.854 913.423 134.733C912.54 135.874 912.132 137.502 912.132 139.619C912.132 141.736 912.54 143.537 913.481 144.723C914.189 145.602 915.129 146.044 916.245 146.044C917.478 146.044 918.477 145.564 919.301 144.596C920.125 143.582 920.475 142.044 920.475 139.934C920.475 137.6 920.067 135.889 919.184 134.785C918.477 133.862 917.478 133.419 916.245 133.419V133.412ZM916.42 132.706C918.127 132.706 919.593 133.367 920.825 134.688C922.116 136.009 922.707 137.683 922.707 139.657C922.707 141.631 922.058 143.395 920.825 144.716C919.593 146.082 918.061 146.743 916.304 146.743C914.546 146.743 912.956 146.082 911.723 144.761C910.491 143.485 909.9 141.766 909.9 139.657C909.9 137.548 910.608 135.784 912.015 134.425C913.248 133.284 914.721 132.706 916.42 132.706ZM900.091 145.466C900.856 145.639 901.556 145.729 902.322 145.729C903.497 145.729 904.379 145.466 904.962 144.941C905.553 144.416 905.903 143.755 905.903 142.914C905.903 142.434 905.728 141.901 905.495 141.421C905.203 140.94 904.729 140.588 904.146 140.28C903.497 140.017 902.738 139.882 901.797 139.882H900.798C900.506 139.927 900.273 139.927 900.091 139.972V145.474V145.466ZM900.091 139.041C900.324 139.086 900.616 139.131 900.915 139.131C901.206 139.176 901.564 139.176 901.914 139.176C902.855 139.176 903.562 139.086 904.029 138.869C904.496 138.651 904.853 138.343 905.145 137.9C905.378 137.502 905.495 137.022 905.495 136.489C905.495 135.701 905.203 135.04 904.554 134.508C903.963 133.937 903.03 133.674 901.848 133.674C901.199 133.674 900.616 133.719 900.083 133.892V139.041H900.091ZM905.145 139.567C906.086 139.784 906.727 140.092 907.202 140.535C907.792 141.15 908.142 141.901 908.142 142.779C908.142 143.44 907.909 144.055 907.493 144.671C907.085 145.286 906.552 145.729 905.787 146.037C905.079 146.3 904.022 146.435 902.556 146.435H896.327V146.082H896.86C897.385 146.082 897.8 145.909 898.034 145.557C898.15 145.339 898.267 144.806 898.267 144.063V135.393C898.267 134.56 898.15 134.027 897.975 133.809C897.742 133.502 897.326 133.367 896.86 133.367H896.327V132.969H902.023C903.081 132.969 903.905 133.059 904.547 133.231C905.488 133.449 906.253 133.892 906.72 134.508C907.245 135.078 907.486 135.784 907.486 136.572C907.486 137.277 907.311 137.848 906.895 138.373C906.487 138.899 905.896 139.296 905.13 139.559L905.145 139.567Z" fill="white"/>
<path fill-rule="evenodd" clip-rule="evenodd" d="M943.406 114.849C944.23 115.066 944.93 115.862 944.996 116.913C945.054 118.279 944.055 119.375 942.764 119.42C941.473 119.51 940.357 118.452 940.299 117.131C940.24 116.027 940.948 115.194 941.706 114.886C940.707 112.86 939.001 109.692 933.363 107.102C933.771 106.532 934.654 105.519 935.128 104.505C937.126 105.736 939.766 108.859 941.123 111.411H941.24C941.181 110 940.124 105.826 936.484 102.479C936.893 101.818 937.6 100.895 938.067 99.9716C939.358 100.895 940.831 104.505 942.005 109.429L942.064 109.384C942.122 107.05 941.415 101.068 939.774 97.5471C940.306 96.9316 941.181 95.6105 941.772 94.5146C942.479 95.573 943.42 96.759 943.945 97.3745C942.596 101.022 942.356 107.05 942.596 109.384H942.713C943.42 104.415 944.653 100.677 945.827 99.6188C946.418 100.497 947.176 101.375 947.65 101.991C944.303 105.639 943.595 109.865 943.654 111.321H943.712C944.886 108.634 947.293 105.339 949.116 103.89C949.707 104.858 950.641 105.826 951.115 106.307C945.71 109.429 944.244 112.732 943.42 114.841M916.69 106.262H916.632C914.342 106.262 911.993 106.705 909.638 107.448C906.757 108.371 898.355 111.981 895.299 113.077C891.302 114.488 888.604 114.924 885.723 114.571C887.189 116.988 889.895 117.956 893.009 117.956C895.715 117.956 898.471 117.206 901.411 116.327C903.993 115.494 911.395 112.544 915.45 111.268C919.447 109.902 921.912 109.549 923.502 109.549C922.211 107.568 919.505 106.247 916.69 106.247V106.262ZM934.727 119.022C933.961 119.022 933.137 118.579 932.612 118.054C932.203 117.574 932.203 117.131 932.553 116.868C933.377 116.343 933.669 115.502 933.669 114.714C933.669 112.604 931.087 110.931 928.557 110.931H928.498C926.325 110.931 924.385 111.193 920.979 112.162C917.281 113.265 908.113 116.778 905.174 117.746C901.294 119.067 898.362 119.855 895.306 119.855C891.134 119.855 886.846 118.136 882.557 113.918C880.267 113.04 876.861 111.058 876.861 108.108C876.861 107.05 877.685 105.601 879.21 105.601C880.559 105.601 881.325 106.832 881.325 107.665C881.325 107.928 881.15 108.236 880.858 108.454C880.391 108.761 880.034 109.332 880.034 110.127C880.034 112.327 882.798 112.987 884.731 112.987C887.138 112.987 890.609 112.019 894.657 110.48C898.479 108.896 903.941 106.787 905.349 106.254C906.932 105.684 910.046 104.625 913.518 104.625C916.69 104.625 921.037 105.376 926.441 109.422C929.023 109.557 931.262 110.172 933.844 112.019C936.309 113.775 936.958 115.667 936.958 116.553C936.958 118.182 935.668 119.015 934.727 119.015V119.022ZM989.427 113.085C986.371 111.981 977.969 108.378 975.154 107.455C972.747 106.705 970.398 106.269 968.101 106.269H968.043C965.22 106.269 962.522 107.59 961.231 109.572C962.821 109.572 965.286 109.925 969.283 111.291C973.338 112.567 980.74 115.517 983.322 116.35C986.261 117.228 989.018 117.979 991.724 117.979C994.838 117.979 997.537 117.011 999.01 114.594C996.129 114.946 993.431 114.504 989.434 113.1L989.427 113.085ZM1002.18 113.918C997.887 118.144 993.598 119.855 989.427 119.855C986.371 119.855 983.432 119.06 979.559 117.746C976.678 116.778 967.459 113.257 963.754 112.162C960.348 111.193 958.408 110.931 956.235 110.931H956.176C953.653 110.931 951.064 112.604 951.064 114.714C951.064 115.502 951.355 116.343 952.18 116.868C952.588 117.131 952.588 117.574 952.121 118.054C951.596 118.579 950.772 119.022 950.006 119.022C949.065 119.022 947.774 118.189 947.774 116.56C947.774 115.682 948.424 113.79 950.889 112.026C953.471 110.18 955.71 109.564 958.291 109.429C963.696 105.384 968.043 104.633 971.215 104.633C974.738 104.633 977.794 105.691 979.384 106.262C980.791 106.787 986.254 108.904 990.076 110.488C994.131 112.026 997.654 112.995 1000 112.995C1001.94 112.995 1004.7 112.334 1004.7 110.135C1004.7 109.347 1004.35 108.769 1003.87 108.461C1003.58 108.243 1003.41 107.936 1003.41 107.673C1003.41 106.84 1004.17 105.609 1005.52 105.609C1007.05 105.609 1007.87 107.057 1007.87 108.116C1007.87 111.066 1004.47 113.04 1002.18 113.926V113.918Z" fill="white"/>
</g>
<defs>
<linearGradient id="paint0_linear_64_130" x1="939.457" y1="-202.364" x2="942.667" y2="450.278" gradientUnits="userSpaceOnUse">
<stop stop-color="#324587"/>
<stop offset="1" stop-color="#0C1121"/>
</linearGradient>
<clipPath id="clip0_64_130">
<rect width="1879" height="573" fill="white"/>
</clipPath>
</defs>
</svg>
