<svg width="440" height="400" viewBox="0 0 440 400" fill="none" xmlns="http://www.w3.org/2000/svg">
<g clip-path="url(#clip0_64_64)">
<path d="M-105 71.7288L371.171 -28L433.695 270.53V270.53C389.593 293.128 340.295 303.646 290.811 301.015L288.679 300.902L198.759 290.614C156.239 285.749 114.327 303.79 88.6333 338.016V338.016C68.3507 365.035 37.6625 382.304 4.04116 385.619L-38.3832 389.801L-105 71.7288Z" fill="#F39200"/>
<path d="M-44.2529 -0.515869L441.343 -30.196L459.951 274.243V274.243C413.04 290.212 362.738 293.476 314.158 283.703L312.065 283.282L224.584 260.073C183.218 249.099 139.134 260.876 108.752 291.019V291.019C84.7689 314.813 51.9023 327.453 18.1555 325.861L-24.4272 323.852L-44.2529 -0.515869Z" fill="url(#paint0_linear_64_64)"/>
<path fill-rule="evenodd" clip-rule="evenodd" d="M176.21 144.958L220.388 144.999L220.436 207.822L180.056 178.652L176.21 144.958ZM173.953 123.378L268.925 123.689L267.247 143.468L175.849 143.489L173.946 123.378H173.953ZM266.981 144.958L222.803 144.999L222.755 207.822L263.517 178.672L266.981 144.951V144.958ZM267.527 169.307L268.515 158.751C268.679 157.6 268.788 156.367 268.843 155.183C268.897 154.031 269.17 152.84 269.225 151.648C269.225 150.456 269.443 149.305 269.552 148.113L269.77 145.493C269.825 145.093 269.879 144.978 269.879 144.66C270.098 142.276 270.261 139.9 270.486 137.476C270.595 136.406 270.814 135.173 270.868 133.941L271.196 130.488C271.305 129.337 271.523 128.064 271.523 126.953C271.577 125.761 271.741 124.57 271.85 123.385C272.014 122.037 272.403 120.724 270.752 120.764C267.404 120.845 263.939 120.724 260.591 120.724C243.616 120.724 226.697 120.561 209.722 120.561C202.909 120.561 196.26 120.405 189.447 120.405H179.231C176.872 120.405 173.905 120.324 171.539 120.405C170.768 120.405 170.277 120.805 170.332 121.597L172.036 136.399C172.091 136.799 172.146 137.11 172.2 137.469C172.309 138.22 172.364 138.979 172.473 139.73C172.527 140.523 172.691 141.2 172.691 142.033C172.746 142.588 172.8 143.861 172.909 144.335L174.007 153.341C174.062 154.052 174.171 154.925 174.28 155.643L177.192 180.568L183.071 184.854C183.623 185.213 184.06 185.531 184.558 185.924C185.383 186.561 187.961 188.348 189.011 189.1C189.502 189.459 190 189.811 190.491 190.17L194.944 193.345C195.496 193.745 195.824 193.982 196.431 194.415L199.397 196.555C199.895 196.914 200.332 197.192 200.884 197.584L217.204 209.292C217.64 209.651 218.138 210.003 218.629 210.321C221.098 211.912 221.596 213.341 223.628 211.831C224.064 211.513 224.562 211.154 225.053 210.761C225.987 210.05 226.976 209.373 228.02 208.621L233.898 204.335C237.69 201.633 241.809 198.58 245.656 195.763L266.313 180.764C266.558 180.5 267.486 169.89 267.52 169.294L267.527 169.307Z" fill="white"/>
<path fill-rule="evenodd" clip-rule="evenodd" d="M218.404 155.508C218.404 155.508 211.1 154.316 207.199 153.882C205.658 153.727 204.894 154.038 204.894 154.038C204.894 154.038 203.025 154.553 202.036 155.866C200.993 157.295 200.829 159.557 200.829 159.557L181.932 156.659C181.932 156.659 182.539 160.789 189.57 164.039C194.733 166.423 196.874 167.608 196.874 167.608L188.083 180.067C188.083 180.067 201.375 177.724 204.676 172.727C207.26 168.759 206.817 162.326 206.817 162.326C206.817 162.326 206.926 159.746 207.697 158.04C208.358 156.53 209.675 155.894 209.675 155.894C209.675 155.894 211.27 155.338 212.914 155.257C215.444 155.135 218.411 155.494 218.411 155.494" fill="white"/>
<path fill-rule="evenodd" clip-rule="evenodd" d="M243.323 167.012C242.443 166.816 239.92 165.583 240.411 164.75C240.793 164.432 241.345 164.75 242.007 164.351C242.443 164.114 242.887 164.391 242.832 163.118C241.952 162.76 241.182 162.523 240.363 163.078C239.811 163.477 238.884 163.951 238.822 164.784C238.713 165.854 240.247 166.965 241.018 167.445C241.291 167.601 241.789 167.804 242.007 168.041C241.789 168.556 238.822 169.47 241.898 171.61C241.789 172.009 241.461 172.124 241.4 172.605C241.127 174.311 242.607 174.745 243.214 175.307C243.105 175.463 241.018 177.169 243.269 177.887C243.105 178.482 243.214 178.604 243.651 179.038L243.814 179.234C243.814 179.275 243.869 179.275 243.869 179.315L243.923 179.356C243.814 179.634 243.596 179.755 243.432 179.911L243.923 179.755C243.923 180.392 243.869 181.265 244.087 181.739L244.196 179.6C244.578 179.64 244.633 179.837 244.967 179.918L244.476 179.363C245.137 178.848 245.246 178.808 245.083 177.975C245.519 177.656 246.235 177.46 246.072 176.742C245.962 175.991 245.519 175.713 245.192 175.314C245.799 174.596 247.115 174.758 246.842 172.652C246.733 172.138 246.569 171.901 246.29 171.623L246.788 171.305C247.224 171.068 247.722 170.431 247.667 169.795C247.667 168.8 246.897 168.447 246.242 168.048C246.46 167.811 247.067 167.648 247.722 167.093C247.886 166.937 248.049 166.856 248.22 166.734L249.045 165.861C249.536 165.028 249.372 164.195 248.608 163.64C247.067 162.529 247.067 162.448 245.533 163.166L245.315 163.247L245.26 163.288C245.26 164.08 245.587 164.08 246.14 164.398C246.692 164.716 247.292 164.358 247.736 164.798C248.172 165.631 245.758 166.978 244.824 167.1C244.878 165.075 245.205 162.496 245.205 160.39C245.205 159.597 245.315 158.961 245.315 158.209C245.369 157.695 245.369 155.23 245.533 154.878C245.751 154.56 245.806 154.519 245.969 154.086C246.522 152.102 244.21 150.036 242.675 152.02C242.348 152.454 242.123 153.171 242.293 153.923C242.457 154.756 242.846 154.675 242.846 155.711C242.846 156.503 242.846 157.221 242.9 157.972C243.009 159.442 243.064 161.026 243.119 162.455C243.173 163.924 243.391 165.631 243.337 167.019M243.446 169.003L243.5 170.587C242.839 170.547 242.184 170.465 242.239 169.836C242.348 169.321 242.9 169.084 243.446 169.003ZM244.708 170.587L244.762 168.881C245.369 169.037 246.358 169.477 245.86 170.154C245.642 170.513 245.089 170.553 244.708 170.587ZM243.61 172.375L243.664 174.237C243.391 174.081 242.784 173.56 242.675 173.242C242.512 172.646 243.112 172.212 243.61 172.368V172.375ZM246.14 157.85C247.074 157.932 248.063 157.81 248.943 157.695L255.149 156.74C256.744 156.462 259.377 155.629 260.7 154.993L262.071 154.201C262.234 154.079 262.289 154.079 262.507 153.923C262.834 153.727 263.878 152.853 264.048 152.576C263.776 152.697 263.387 152.731 263.005 152.894C262.678 153.05 262.234 153.09 261.852 153.212C260.536 153.645 256.083 154.485 254.658 154.722L246.856 155.555C246.358 155.711 246.358 155.914 246.249 156.428C246.14 156.862 246.194 157.383 246.14 157.857V157.85ZM242.075 157.654L241.857 155.711C241.802 155.629 241.857 155.629 241.802 155.589L241.748 155.467C241.693 155.23 239.77 155.271 239.388 155.23C237.683 155.108 234.007 154.715 232.521 154.478C231.034 154.241 229.609 153.923 228.183 153.686L225.108 152.934C224.726 152.853 224.446 152.657 224.064 152.616C224.392 153.171 226.703 154.641 227.467 154.959C229.772 155.914 229.609 155.792 231.805 156.388C233.285 156.787 240.759 157.938 242.075 157.661V157.654ZM229.056 156.462C229.165 156.516 229.274 156.568 229.384 156.618C229.82 156.896 230.809 157.613 231.634 157.891C232.568 158.25 233.612 158.683 234.71 158.886C235.917 159.083 241.141 159.801 242.123 159.482C242.177 159.164 242.068 158.331 242.014 158.013C238.884 157.932 235.092 157.695 232.071 157.018C231.191 156.862 230.311 156.74 229.431 156.462C229.159 156.34 229.159 156.381 229.049 156.462H229.056ZM246.085 159.638C247.074 159.875 252.018 159.36 253.389 159.002C254.433 158.724 255.585 158.446 256.465 158.006C257.017 157.769 258.661 156.936 258.995 156.422L255.701 157.173C253.669 157.573 250.593 158.047 248.561 158.128C246.31 158.209 246.031 158.047 246.092 159.638H246.085ZM245.921 161.344C247.681 161.581 251.855 161.148 253.669 160.349C253.887 160.227 255.319 159.435 255.537 159.198C254.767 159.279 253.832 159.597 253.123 159.713C252.298 159.868 251.309 159.99 250.538 160.071C249.55 160.193 246.747 160.112 246.365 160.268C245.812 160.464 245.928 160.742 245.928 161.338L245.921 161.344ZM241.305 161.223L242.348 161.263C242.457 160.945 242.348 160.39 242.239 160.031C238.72 159.99 238.229 160.112 234.71 159.557C234.048 159.435 233.285 159.198 232.623 159.157C232.623 159.157 232.678 159.157 232.678 159.198H232.732L233.448 159.672C233.776 159.794 234.055 159.95 234.382 160.105C235.371 160.62 236.415 160.816 237.513 160.938C238.829 161.06 239.654 161.216 241.305 161.216V161.223ZM244.489 174.359L244.544 172.334C245.096 172.253 245.751 172.612 245.587 173.248C245.478 173.682 244.871 174.203 244.489 174.359Z" fill="white"/>
<path fill-rule="evenodd" clip-rule="evenodd" d="M257.283 128.348V133.149H259.977C260.639 133.149 261.13 133.027 261.348 132.831C261.675 132.553 261.846 132.079 261.846 131.402H262.228V135.607H261.846C261.791 135.011 261.682 134.652 261.627 134.456C261.518 134.259 261.355 134.097 261.075 133.982C260.857 133.86 260.468 133.826 259.977 133.826H257.283V137.794C257.283 138.349 257.283 138.667 257.338 138.789C257.392 138.911 257.447 138.986 257.611 139.067C257.72 139.148 257.938 139.189 258.272 139.189H260.359C261.02 139.189 261.512 139.148 261.846 139.033C262.173 138.952 262.453 138.755 262.78 138.478C263.107 138.078 263.496 137.523 263.878 136.812H264.26L263.216 139.825H253.764V139.507H254.201C254.474 139.507 254.753 139.426 255.026 139.311C255.244 139.189 255.353 139.074 255.408 138.877C255.462 138.681 255.517 138.281 255.517 137.686V129.831C255.517 129.039 255.462 128.558 255.299 128.402C255.08 128.165 254.692 128.043 254.201 128.043H253.764V127.684H263.216L263.326 130.386H262.998C262.889 129.709 262.725 129.276 262.562 129.039C262.398 128.802 262.18 128.639 261.9 128.524C261.627 128.402 261.239 128.368 260.639 128.368H257.29L257.283 128.348ZM239.811 127.671H243.105L250.634 136.799V129.811C250.634 129.059 250.525 128.578 250.361 128.382C250.143 128.145 249.754 128.023 249.318 128.023H248.881V127.664H253.164V128.023H252.728C252.175 128.023 251.848 128.179 251.63 128.497C251.466 128.693 251.411 129.093 251.411 129.804V140.001H251.084L243.01 130.237V137.699C243.01 138.451 243.119 138.932 243.282 139.128C243.501 139.365 243.835 139.487 244.326 139.487H244.762V139.805H240.479V139.487H240.916C241.468 139.487 241.796 139.331 242.014 139.013C242.178 138.816 242.232 138.376 242.232 137.706V129.289C241.85 128.856 241.625 128.578 241.407 128.456C241.243 128.334 240.97 128.219 240.582 128.097C240.418 128.057 240.145 128.016 239.811 128.016V127.657V127.671ZM233.271 128.07C232.173 128.07 231.348 128.47 230.632 129.262C229.807 130.291 229.425 131.761 229.425 133.67C229.425 135.58 229.861 137.205 230.686 138.275C231.348 139.067 232.228 139.466 233.326 139.466C234.423 139.466 235.412 139.033 236.128 138.16C236.899 137.245 237.281 135.857 237.281 133.955C237.281 131.849 236.844 130.305 236.019 129.31C235.358 128.477 234.478 128.077 233.271 128.077V128.07ZM233.489 127.434C235.03 127.434 236.401 128.03 237.608 129.222C238.761 130.413 239.313 131.923 239.313 133.704C239.313 135.485 238.761 137.076 237.554 138.268C236.401 139.5 234.969 140.096 233.326 140.096C231.682 140.096 230.195 139.5 229.097 138.309C227.945 137.157 227.338 135.607 227.338 133.704C227.338 131.801 227.999 130.21 229.315 128.985C230.468 127.955 231.846 127.434 233.489 127.434ZM226.458 127.671L226.567 130.528H226.24C226.185 130.054 226.076 129.696 225.967 129.459C225.803 129.1 225.531 128.863 225.251 128.707C224.924 128.551 224.48 128.47 223.989 128.47H222.284V137.719C222.284 138.471 222.339 138.952 222.503 139.148C222.721 139.385 223.11 139.507 223.546 139.507H223.982V139.825H218.82V139.507H219.256C219.754 139.507 220.136 139.351 220.354 139.033C220.463 138.837 220.518 138.397 220.518 137.726V128.477H219.093C218.486 128.477 218.104 128.517 217.831 128.599C217.558 128.72 217.279 128.917 217.06 129.235C216.842 129.594 216.679 129.987 216.679 130.542H216.297L216.46 127.684H226.458V127.671ZM208.331 133.582H208.822C210.029 133.582 210.909 133.345 211.461 132.831C212.068 132.357 212.396 131.72 212.396 130.928C212.396 130.136 212.123 129.58 211.68 129.1C211.182 128.626 210.527 128.389 209.756 128.389C209.429 128.389 208.931 128.429 208.331 128.544V133.582ZM217.013 139.812H213.773L209.654 134.137C209.327 134.178 209.047 134.178 208.884 134.178H208.611C208.556 134.178 208.447 134.178 208.338 134.137V137.672C208.338 138.464 208.447 138.904 208.611 139.101C208.829 139.378 209.163 139.5 209.654 139.5H210.091V139.819H204.874V139.5H205.31C205.862 139.5 206.19 139.345 206.408 138.986C206.572 138.83 206.626 138.39 206.626 137.679V129.858C206.626 129.066 206.517 128.585 206.353 128.429C206.135 128.152 205.801 128.03 205.31 128.03H204.874V127.671H209.32C210.636 127.671 211.571 127.793 212.177 127.989C212.784 128.145 213.33 128.504 213.773 129.018C214.21 129.492 214.435 130.129 214.435 130.806C214.435 131.558 214.162 132.194 213.664 132.749C213.166 133.305 212.403 133.704 211.414 133.9L213.944 137.394C214.496 138.187 214.987 138.742 215.43 138.979C215.812 139.257 216.365 139.412 217.026 139.494V139.812H217.013ZM197.788 128.064C196.69 128.064 195.81 128.463 195.149 129.255C194.323 130.285 193.941 131.754 193.941 133.663C193.941 135.573 194.323 137.198 195.203 138.268C195.865 139.06 196.744 139.46 197.788 139.46C198.94 139.46 199.875 139.026 200.645 138.153C201.416 137.239 201.743 135.851 201.743 133.948C201.743 131.842 201.361 130.298 200.536 129.303C199.875 128.47 198.94 128.07 197.788 128.07V128.064ZM197.951 127.427C199.547 127.427 200.918 128.023 202.071 129.215C203.278 130.406 203.83 131.916 203.83 133.697C203.83 135.478 203.223 137.069 202.071 138.261C200.918 139.494 199.486 140.089 197.842 140.089C196.199 140.089 194.712 139.494 193.56 138.302C192.407 137.151 191.855 135.6 191.855 133.697C191.855 131.795 192.516 130.203 193.832 128.978C194.985 127.949 196.362 127.427 197.951 127.427ZM182.682 138.938C183.398 139.094 184.053 139.175 184.769 139.175C185.867 139.175 186.692 138.938 187.238 138.464C187.79 137.99 188.117 137.394 188.117 136.636C188.117 136.203 187.954 135.722 187.736 135.289C187.463 134.855 187.019 134.537 186.474 134.259C185.867 134.022 185.158 133.9 184.278 133.9H183.344C183.071 133.941 182.853 133.941 182.682 133.982V138.945V138.938ZM182.682 133.142C182.9 133.183 183.173 133.223 183.453 133.223C183.725 133.264 184.06 133.264 184.387 133.264C185.267 133.264 185.928 133.183 186.365 132.986C186.801 132.79 187.135 132.512 187.408 132.113C187.626 131.754 187.736 131.321 187.736 130.84C187.736 130.129 187.463 129.533 186.856 129.052C186.303 128.538 185.43 128.301 184.326 128.301C183.719 128.301 183.173 128.341 182.675 128.497V133.142H182.682ZM187.408 133.616C188.288 133.812 188.888 134.09 189.331 134.49C189.884 135.045 190.211 135.722 190.211 136.514C190.211 137.11 189.993 137.665 189.604 138.221C189.222 138.776 188.724 139.175 188.008 139.453C187.347 139.69 186.358 139.812 184.987 139.812H179.163V139.494H179.661C180.152 139.494 180.541 139.338 180.759 139.02C180.868 138.823 180.977 138.342 180.977 137.672V129.851C180.977 129.1 180.868 128.619 180.704 128.423C180.486 128.145 180.097 128.023 179.661 128.023H179.163V127.664H184.489C185.478 127.664 186.249 127.745 186.849 127.901C187.729 128.097 188.445 128.497 188.881 129.052C189.372 129.567 189.597 130.203 189.597 130.914C189.597 131.551 189.434 132.065 189.045 132.539C188.663 133.013 188.111 133.372 187.395 133.609L187.408 133.616Z" fill="white"/>
<path fill-rule="evenodd" clip-rule="evenodd" d="M223.185 111.318C223.955 111.515 224.61 112.232 224.671 113.18C224.726 114.413 223.791 115.401 222.584 115.442C221.377 115.523 220.334 114.568 220.279 113.377C220.225 112.381 220.886 111.63 221.596 111.352C220.661 109.524 219.065 106.666 213.794 104.33C214.176 103.816 215.001 102.902 215.444 101.987C217.313 103.098 219.781 105.915 221.05 108.217H221.159C221.105 106.944 220.116 103.179 216.713 100.159C217.095 99.5633 217.756 98.7304 218.192 97.8976C219.4 98.7304 220.777 101.987 221.875 106.429L221.93 106.389C221.984 104.283 221.323 98.8862 219.788 95.7104C220.286 95.1552 221.105 93.9635 221.657 92.9749C222.318 93.9296 223.198 94.9995 223.689 95.5547C222.428 98.8455 222.202 104.283 222.428 106.389H222.537C223.198 101.906 224.351 98.5341 225.449 97.5793C226.001 98.3716 226.71 99.1638 227.154 99.719C224.023 103.01 223.362 106.822 223.416 108.136H223.471C224.569 105.712 226.819 102.739 228.524 101.432C229.077 102.306 229.95 103.179 230.393 103.613C225.34 106.429 223.969 109.409 223.198 111.311M198.204 103.572H198.149C196.008 103.572 193.812 103.971 191.609 104.642C188.915 105.475 181.059 108.732 178.201 109.72C174.464 110.993 171.941 111.386 169.247 111.068C170.618 113.248 173.148 114.122 176.06 114.122C178.59 114.122 181.168 113.444 183.916 112.652C186.331 111.901 193.253 109.239 197.044 108.088C200.782 106.856 203.087 106.538 204.573 106.538C203.366 104.75 200.836 103.558 198.204 103.558V103.572ZM215.069 115.083C214.353 115.083 213.582 114.684 213.091 114.21C212.709 113.776 212.709 113.377 213.037 113.14C213.807 112.666 214.08 111.907 214.08 111.196C214.08 109.294 211.666 107.784 209.3 107.784H209.245C207.213 107.784 205.399 108.021 202.214 108.894C198.756 109.889 190.184 113.058 187.435 113.932C183.807 115.124 181.066 115.835 178.208 115.835C174.307 115.835 170.297 114.284 166.287 110.479C164.146 109.686 160.961 107.899 160.961 105.238C160.961 104.283 161.732 102.976 163.157 102.976C164.419 102.976 165.135 104.087 165.135 104.838C165.135 105.075 164.971 105.353 164.698 105.549C164.262 105.827 163.928 106.341 163.928 107.059C163.928 109.043 166.512 109.639 168.32 109.639C170.57 109.639 173.816 108.765 177.601 107.377C181.175 105.949 186.283 104.046 187.599 103.565C189.079 103.051 191.991 102.096 195.237 102.096C198.204 102.096 202.268 102.773 207.322 106.423C209.736 106.544 211.83 107.1 214.244 108.765C216.549 110.35 217.156 112.056 217.156 112.855C217.156 114.325 215.949 115.076 215.069 115.076V115.083ZM266.217 109.727C263.36 108.732 255.503 105.481 252.871 104.649C250.62 103.971 248.424 103.579 246.276 103.579H246.222C243.582 103.579 241.059 104.77 239.852 106.558C241.339 106.558 243.644 106.876 247.381 108.109C251.173 109.26 258.095 111.921 260.509 112.672C263.257 113.465 265.835 114.142 268.365 114.142C271.277 114.142 273.801 113.268 275.178 111.088C272.484 111.406 269.961 111.007 266.224 109.741L266.217 109.727ZM278.138 110.479C274.128 114.291 270.118 115.835 266.217 115.835C263.36 115.835 260.611 115.117 256.99 113.932C254.296 113.058 245.676 109.883 242.212 108.894C239.027 108.021 237.213 107.784 235.18 107.784H235.126C232.766 107.784 230.345 109.294 230.345 111.196C230.345 111.907 230.618 112.666 231.389 113.14C231.771 113.377 231.771 113.776 231.334 114.21C230.843 114.684 230.072 115.083 229.356 115.083C228.477 115.083 227.27 114.331 227.27 112.862C227.27 112.07 227.877 110.363 230.182 108.772C232.596 107.107 234.689 106.551 237.104 106.429C242.157 102.78 246.222 102.103 249.188 102.103C252.482 102.103 255.34 103.057 256.826 103.572C258.143 104.046 263.251 105.955 266.824 107.384C270.616 108.772 273.91 109.646 276.106 109.646C277.92 109.646 280.498 109.05 280.498 107.066C280.498 106.355 280.17 105.834 279.727 105.556C279.454 105.36 279.291 105.082 279.291 104.845C279.291 104.093 280.007 102.983 281.268 102.983C282.694 102.983 283.464 104.29 283.464 105.244C283.464 107.906 280.279 109.686 278.138 110.485V110.479Z" fill="white"/>
</g>
<defs>
<linearGradient id="paint0_linear_64_64" x1="198.545" y1="-15.3559" x2="219.001" y2="319.321" gradientUnits="userSpaceOnUse">
<stop stop-color="#324587"/>
<stop offset="1" stop-color="#0C1121"/>
</linearGradient>
<clipPath id="clip0_64_64">
<rect width="440" height="400" fill="white"/>
</clipPath>
</defs>
</svg>
