<svg width="1280" height="544" viewBox="0 0 1280 544" fill="none" xmlns="http://www.w3.org/2000/svg">
<g clip-path="url(#clip0_64_130)">
<path d="M-205 0.329346L1224.81 -247L1314.41 270.969L1253.27 291.781C1155.55 325.044 1053.27 342.975 950.058 344.939L878.967 346.292L589.769 341.045C479.075 339.037 370.851 373.856 282.094 440.033V440.033C210.641 493.308 126.236 526.497 37.6333 536.159L-109.536 552.206L-205 0.329346Z" fill="#F39200"/>
<path d="M-45 -161.863L1406.03 -169L1408.61 356.655L1344.87 367.054C1242.99 383.675 1139.15 384.422 1037.04 369.267L966.709 358.828L682.372 305.763C573.54 285.451 461.044 301.867 362.554 352.432V352.432C283.265 393.139 194.529 411.893 105.55 406.748L-42.2453 398.202L-45 -161.863Z" fill="url(#paint0_linear_64_130)"/>
<path fill-rule="evenodd" clip-rule="evenodd" d="M593.169 152.139L640.415 152.184L640.466 221.826L597.283 189.49L593.169 152.139ZM590.755 128.217L692.322 128.563L690.528 150.488L592.783 150.511L590.748 128.217H590.755ZM690.244 152.139L642.997 152.184L642.946 221.826L686.539 189.512L690.244 152.132V152.139ZM690.827 179.131L691.885 167.429C692.06 166.153 692.176 164.787 692.235 163.474C692.293 162.198 692.585 160.877 692.643 159.555C692.643 158.234 692.876 156.958 692.993 155.637L693.227 152.732C693.285 152.29 693.343 152.162 693.343 151.809C693.577 149.167 693.752 146.532 693.992 143.845C694.109 142.659 694.342 141.293 694.401 139.927L694.751 136.099C694.868 134.823 695.101 133.412 695.101 132.181C695.159 130.859 695.334 129.538 695.451 128.225C695.626 126.731 696.042 125.275 694.277 125.32C690.696 125.41 686.991 125.275 683.41 125.275C665.257 125.275 647.162 125.095 629.009 125.095C621.723 125.095 614.612 124.922 607.326 124.922H596.4C593.877 124.922 590.704 124.832 588.173 124.922C587.349 124.922 586.824 125.365 586.882 126.243L588.706 142.652C588.764 143.094 588.822 143.44 588.881 143.838C588.997 144.671 589.056 145.511 589.172 146.345C589.231 147.223 589.406 147.973 589.406 148.897C589.464 149.512 589.523 150.923 589.639 151.449L590.813 161.432C590.872 162.22 590.988 163.188 591.105 163.984L594.219 191.614L600.506 196.366C601.097 196.763 601.564 197.116 602.096 197.552C602.979 198.257 605.736 200.239 606.859 201.072C607.384 201.47 607.916 201.86 608.441 202.258L613.204 205.778C613.795 206.221 614.145 206.484 614.794 206.964L617.967 209.336C618.499 209.734 618.966 210.042 619.556 210.477L637.009 223.455C637.476 223.853 638.009 224.243 638.534 224.596C641.174 226.36 641.706 227.944 643.88 226.27C644.347 225.917 644.879 225.519 645.404 225.084C646.403 224.296 647.461 223.545 648.577 222.712L654.864 217.961C658.919 214.966 663.324 211.581 667.437 208.458L689.529 191.832C689.791 191.539 690.783 179.777 690.82 179.116L690.827 179.131Z" fill="white"/>
<path fill-rule="evenodd" clip-rule="evenodd" d="M638.293 163.834C638.293 163.834 630.482 162.513 626.31 162.032C624.662 161.86 623.845 162.205 623.845 162.205C623.845 162.205 621.847 162.776 620.789 164.232C619.673 165.816 619.498 168.323 619.498 168.323L599.288 165.11C599.288 165.11 599.937 169.689 607.457 173.292C612.978 175.934 615.268 177.247 615.268 177.247L605.867 191.059C605.867 191.059 620.082 188.462 623.612 182.922C626.376 178.523 625.902 171.393 625.902 171.393C625.902 171.393 626.018 168.533 626.843 166.641C627.55 164.967 628.958 164.262 628.958 164.262C628.958 164.262 630.664 163.646 632.422 163.556C635.128 163.421 638.3 163.819 638.3 163.819" fill="white"/>
<path fill-rule="evenodd" clip-rule="evenodd" d="M664.943 176.587C664.002 176.369 661.304 175.003 661.829 174.08C662.237 173.727 662.828 174.08 663.535 173.637C664.002 173.374 664.476 173.682 664.418 172.271C663.477 171.873 662.653 171.61 661.778 172.226C661.187 172.669 660.195 173.194 660.129 174.117C660.013 175.303 661.654 176.534 662.478 177.067C662.77 177.24 663.302 177.465 663.535 177.728C663.302 178.298 660.129 179.312 663.419 181.684C663.302 182.126 662.952 182.254 662.886 182.787C662.595 184.679 664.177 185.159 664.826 185.782C664.71 185.955 662.478 187.846 664.885 188.642C664.71 189.302 664.826 189.437 665.293 189.918L665.468 190.136C665.468 190.181 665.527 190.181 665.527 190.226L665.585 190.271C665.468 190.578 665.235 190.713 665.06 190.886L665.585 190.713C665.585 191.419 665.527 192.387 665.76 192.913L665.877 190.541C666.285 190.586 666.343 190.804 666.701 190.894L666.176 190.278C666.883 189.708 667 189.663 666.825 188.739C667.292 188.387 668.057 188.169 667.882 187.373C667.766 186.54 667.292 186.232 666.941 185.789C667.591 184.994 668.998 185.174 668.706 182.84C668.59 182.269 668.415 182.006 668.116 181.699L668.648 181.346C669.115 181.083 669.647 180.378 669.589 179.672C669.589 178.569 668.765 178.178 668.065 177.735C668.298 177.473 668.947 177.293 669.647 176.677C669.822 176.504 669.997 176.414 670.18 176.279L671.062 175.311C671.587 174.388 671.412 173.464 670.595 172.849C668.947 171.618 668.947 171.528 667.306 172.323L667.073 172.414L667.014 172.459C667.014 173.337 667.364 173.337 667.955 173.69C668.546 174.042 669.188 173.645 669.662 174.132C670.129 175.056 667.547 176.549 666.548 176.685C666.606 174.44 666.956 171.58 666.956 169.246C666.956 168.368 667.073 167.662 667.073 166.829C667.131 166.258 667.131 163.526 667.306 163.136C667.539 162.783 667.598 162.738 667.773 162.258C668.364 160.058 665.891 157.769 664.25 159.968C663.9 160.449 663.659 161.244 663.842 162.078C664.017 163.001 664.433 162.911 664.433 164.059C664.433 164.937 664.433 165.733 664.491 166.566C664.608 168.195 664.666 169.952 664.724 171.535C664.783 173.164 665.016 175.056 664.958 176.594M665.074 178.794L665.133 180.55C664.425 180.505 663.725 180.415 663.783 179.717C663.9 179.147 664.491 178.884 665.074 178.794ZM666.424 180.55L666.482 178.659C667.131 178.831 668.189 179.319 667.656 180.07C667.423 180.468 666.832 180.513 666.424 180.55ZM665.249 182.532L665.308 184.596C665.016 184.423 664.367 183.845 664.25 183.493C664.075 182.832 664.717 182.352 665.249 182.524V182.532ZM667.955 166.431C668.954 166.521 670.012 166.386 670.953 166.258L677.59 165.2C679.296 164.892 682.112 163.969 683.526 163.264L684.992 162.385C685.167 162.25 685.226 162.25 685.459 162.078C685.809 161.86 686.925 160.892 687.108 160.584C686.816 160.719 686.4 160.756 685.992 160.937C685.642 161.109 685.167 161.154 684.759 161.289C683.351 161.77 678.589 162.701 677.065 162.963L668.721 163.887C668.189 164.059 668.189 164.284 668.072 164.855C667.955 165.335 668.014 165.913 667.955 166.439V166.431ZM663.608 166.213L663.375 164.059C663.317 163.969 663.375 163.969 663.317 163.924L663.258 163.789C663.2 163.526 661.143 163.571 660.735 163.526C658.911 163.391 654.98 162.956 653.39 162.693C651.8 162.43 650.276 162.078 648.752 161.815L645.463 160.982C645.054 160.892 644.755 160.674 644.347 160.629C644.697 161.244 647.169 162.873 647.986 163.226C650.451 164.284 650.276 164.149 652.625 164.81C654.207 165.253 662.201 166.529 663.608 166.221V166.213ZM649.685 164.892C649.802 164.952 649.919 165.01 650.035 165.065C650.502 165.373 651.56 166.168 652.442 166.476C653.441 166.874 654.557 167.354 655.732 167.58C657.023 167.797 662.609 168.593 663.659 168.24C663.718 167.887 663.601 166.964 663.543 166.611C660.195 166.521 656.14 166.258 652.909 165.508C651.968 165.335 651.027 165.2 650.087 164.892C649.795 164.757 649.795 164.802 649.678 164.892H649.685ZM667.897 168.413C668.954 168.675 674.242 168.105 675.708 167.707C676.824 167.399 678.056 167.092 678.997 166.604C679.588 166.341 681.346 165.418 681.703 164.847L678.18 165.681C676.007 166.123 672.718 166.649 670.544 166.739C668.138 166.829 667.839 166.649 667.904 168.413H667.897ZM667.722 170.304C669.604 170.567 674.067 170.087 676.007 169.201C676.24 169.066 677.772 168.188 678.005 167.925C677.181 168.015 676.182 168.368 675.424 168.495C674.541 168.668 673.484 168.803 672.659 168.893C671.602 169.028 668.604 168.938 668.196 169.111C667.605 169.328 667.729 169.636 667.729 170.297L667.722 170.304ZM662.784 170.169L663.9 170.214C664.017 169.861 663.9 169.246 663.783 168.848C660.02 168.803 659.495 168.938 655.732 168.323C655.024 168.188 654.207 167.925 653.5 167.88C653.5 167.88 653.558 167.88 653.558 167.925H653.617L654.382 168.45C654.732 168.585 655.031 168.758 655.382 168.931C656.439 169.501 657.555 169.719 658.729 169.854C660.137 169.989 661.019 170.162 662.784 170.162V170.169ZM666.19 184.731L666.249 182.487C666.839 182.397 667.539 182.795 667.364 183.5C667.248 183.98 666.599 184.558 666.19 184.731Z" fill="white"/>
<path fill-rule="evenodd" clip-rule="evenodd" d="M679.872 133.727V139.049H682.753C683.461 139.049 683.986 138.914 684.219 138.696C684.569 138.388 684.752 137.863 684.752 137.112H685.16V141.773H684.752C684.693 141.113 684.577 140.715 684.518 140.497C684.402 140.28 684.226 140.1 683.927 139.972C683.694 139.837 683.278 139.799 682.753 139.799H679.872V144.198C679.872 144.813 679.872 145.166 679.931 145.301C679.989 145.436 680.047 145.519 680.222 145.609C680.339 145.699 680.573 145.744 680.93 145.744H683.162C683.869 145.744 684.394 145.699 684.752 145.572C685.102 145.482 685.401 145.264 685.751 144.956C686.101 144.513 686.517 143.898 686.925 143.11H687.333L686.218 146.45H676.109V146.097H676.576C676.867 146.097 677.167 146.007 677.458 145.879C677.692 145.744 677.808 145.617 677.867 145.399C677.925 145.181 677.983 144.738 677.983 144.078V135.371C677.983 134.493 677.925 133.96 677.75 133.787C677.517 133.524 677.101 133.389 676.576 133.389H676.109V132.991H686.218L686.334 135.986H685.984C685.867 135.236 685.692 134.755 685.517 134.493C685.342 134.23 685.109 134.05 684.81 133.922C684.518 133.787 684.102 133.749 683.461 133.749H679.88L679.872 133.727ZM661.187 132.976H664.709L672.761 143.095V135.348C672.761 134.515 672.645 133.982 672.47 133.764C672.236 133.502 671.82 133.367 671.354 133.367H670.887V132.969H675.467V133.367H675C674.41 133.367 674.06 133.539 673.826 133.892C673.651 134.11 673.593 134.553 673.593 135.341V146.645H673.243L664.607 135.821V144.093C664.607 144.926 664.724 145.459 664.899 145.677C665.133 145.939 665.49 146.074 666.015 146.074H666.482V146.427H661.902V146.074H662.368C662.959 146.074 663.309 145.902 663.543 145.549C663.718 145.331 663.776 144.843 663.776 144.1V134.77C663.368 134.29 663.127 133.982 662.893 133.847C662.718 133.712 662.427 133.584 662.011 133.449C661.836 133.404 661.544 133.359 661.187 133.359V132.961V132.976ZM654.192 133.419C653.018 133.419 652.136 133.862 651.37 134.74C650.487 135.881 650.079 137.51 650.079 139.627C650.079 141.743 650.546 143.545 651.428 144.731C652.136 145.609 653.077 146.052 654.251 146.052C655.425 146.052 656.483 145.572 657.248 144.603C658.073 143.59 658.481 142.051 658.481 139.942C658.481 137.608 658.014 135.896 657.132 134.793C656.424 133.87 655.483 133.427 654.192 133.427V133.419ZM654.426 132.714C656.074 132.714 657.54 133.374 658.831 134.695C660.064 136.016 660.654 137.69 660.654 139.664C660.654 141.638 660.064 143.402 658.773 144.723C657.54 146.09 656.009 146.75 654.251 146.75C652.493 146.75 650.903 146.09 649.729 144.768C648.496 143.492 647.847 141.773 647.847 139.664C647.847 137.555 648.555 135.791 649.962 134.432C651.195 133.292 652.668 132.714 654.426 132.714ZM646.906 132.976L647.023 136.144H646.673C646.615 135.618 646.498 135.221 646.381 134.958C646.206 134.56 645.915 134.297 645.616 134.125C645.265 133.952 644.791 133.862 644.266 133.862H642.443V144.115C642.443 144.949 642.501 145.482 642.676 145.699C642.91 145.962 643.325 146.097 643.792 146.097H644.259V146.45H638.738V146.097H639.205C639.737 146.097 640.146 145.924 640.379 145.572C640.496 145.354 640.554 144.866 640.554 144.123V133.87H639.03C638.381 133.87 637.972 133.915 637.68 134.005C637.389 134.14 637.09 134.357 636.856 134.71C636.623 135.108 636.448 135.543 636.448 136.159H636.039L636.214 132.991H646.906V132.976ZM627.521 139.529H628.046C629.337 139.529 630.278 139.266 630.868 138.696C631.518 138.171 631.868 137.465 631.868 136.587C631.868 135.709 631.576 135.093 631.102 134.56C630.569 134.035 629.869 133.772 629.045 133.772C628.695 133.772 628.163 133.817 627.521 133.945V139.529ZM636.805 146.435H633.341L628.936 140.145C628.586 140.19 628.287 140.19 628.112 140.19H627.82C627.761 140.19 627.645 140.19 627.528 140.145V144.063C627.528 144.941 627.645 145.429 627.82 145.647C628.053 145.954 628.411 146.09 628.936 146.09H629.402V146.442H623.823V146.09H624.29C624.881 146.09 625.231 145.917 625.464 145.519C625.639 145.346 625.697 144.859 625.697 144.07V135.401C625.697 134.523 625.581 133.99 625.406 133.817C625.172 133.509 624.815 133.374 624.29 133.374H623.823V132.976H628.578C629.986 132.976 630.985 133.111 631.634 133.329C632.283 133.502 632.867 133.9 633.341 134.47C633.808 134.995 634.048 135.701 634.048 136.452C634.048 137.285 633.757 137.99 633.224 138.606C632.692 139.221 631.875 139.664 630.817 139.882L633.523 143.755C634.114 144.633 634.639 145.249 635.113 145.512C635.522 145.819 636.112 145.992 636.82 146.082V146.435H636.805ZM616.245 133.412C615.071 133.412 614.13 133.854 613.423 134.733C612.54 135.874 612.132 137.502 612.132 139.619C612.132 141.736 612.54 143.537 613.481 144.723C614.189 145.602 615.129 146.044 616.245 146.044C617.478 146.044 618.477 145.564 619.301 144.596C620.125 143.582 620.475 142.044 620.475 139.934C620.475 137.6 620.067 135.889 619.184 134.785C618.477 133.862 617.478 133.419 616.245 133.419V133.412ZM616.42 132.706C618.127 132.706 619.593 133.367 620.825 134.688C622.116 136.009 622.707 137.683 622.707 139.657C622.707 141.631 622.058 143.395 620.825 144.716C619.593 146.082 618.061 146.743 616.304 146.743C614.546 146.743 612.956 146.082 611.723 144.761C610.491 143.485 609.9 141.766 609.9 139.657C609.9 137.548 610.608 135.784 612.015 134.425C613.248 133.284 614.721 132.706 616.42 132.706ZM600.091 145.466C600.856 145.639 601.556 145.729 602.322 145.729C603.496 145.729 604.379 145.466 604.962 144.941C605.553 144.416 605.903 143.755 605.903 142.914C605.903 142.434 605.728 141.901 605.495 141.421C605.203 140.94 604.729 140.588 604.146 140.28C603.496 140.017 602.738 139.882 601.797 139.882H600.798C600.506 139.927 600.273 139.927 600.091 139.972V145.474V145.466ZM600.091 139.041C600.324 139.086 600.616 139.131 600.915 139.131C601.206 139.176 601.564 139.176 601.914 139.176C602.855 139.176 603.562 139.086 604.029 138.869C604.496 138.651 604.853 138.343 605.145 137.9C605.378 137.502 605.495 137.022 605.495 136.489C605.495 135.701 605.203 135.04 604.554 134.508C603.963 133.937 603.03 133.674 601.848 133.674C601.199 133.674 600.616 133.719 600.083 133.892V139.041H600.091ZM605.145 139.567C606.086 139.784 606.727 140.092 607.202 140.535C607.792 141.15 608.142 141.901 608.142 142.779C608.142 143.44 607.909 144.055 607.493 144.671C607.085 145.286 606.552 145.729 605.787 146.037C605.079 146.3 604.022 146.435 602.556 146.435H596.327V146.082H596.86C597.385 146.082 597.8 145.909 598.034 145.557C598.15 145.339 598.267 144.806 598.267 144.063V135.393C598.267 134.56 598.15 134.027 597.975 133.809C597.742 133.502 597.326 133.367 596.86 133.367H596.327V132.969H602.023C603.081 132.969 603.905 133.059 604.547 133.231C605.488 133.449 606.253 133.892 606.72 134.508C607.245 135.078 607.486 135.784 607.486 136.572C607.486 137.277 607.311 137.848 606.895 138.373C606.487 138.899 605.896 139.296 605.13 139.559L605.145 139.567Z" fill="white"/>
<path fill-rule="evenodd" clip-rule="evenodd" d="M643.406 114.849C644.23 115.066 644.93 115.862 644.996 116.913C645.054 118.279 644.055 119.375 642.764 119.42C641.473 119.51 640.357 118.452 640.299 117.131C640.24 116.027 640.948 115.194 641.706 114.886C640.707 112.86 639.001 109.692 633.363 107.102C633.771 106.532 634.654 105.519 635.128 104.505C637.126 105.736 639.766 108.859 641.123 111.411H641.24C641.181 110 640.124 105.826 636.484 102.479C636.893 101.818 637.6 100.895 638.067 99.9716C639.358 100.895 640.831 104.505 642.005 109.429L642.064 109.384C642.122 107.05 641.415 101.068 639.774 97.5471C640.306 96.9316 641.181 95.6105 641.772 94.5146C642.479 95.573 643.42 96.759 643.945 97.3745C642.596 101.022 642.356 107.05 642.596 109.384H642.713C643.42 104.415 644.653 100.677 645.827 99.6188C646.418 100.497 647.176 101.375 647.65 101.991C644.303 105.639 643.595 109.865 643.654 111.321H643.712C644.886 108.634 647.293 105.339 649.116 103.89C649.707 104.858 650.641 105.826 651.115 106.307C645.71 109.429 644.244 112.732 643.42 114.841M616.69 106.262H616.632C614.342 106.262 611.993 106.705 609.638 107.448C606.757 108.371 598.355 111.981 595.299 113.077C591.302 114.488 588.604 114.924 585.723 114.571C587.189 116.988 589.895 117.956 593.009 117.956C595.715 117.956 598.471 117.206 601.411 116.327C603.993 115.494 611.395 112.544 615.45 111.268C619.447 109.902 621.912 109.549 623.502 109.549C622.211 107.568 619.505 106.247 616.69 106.247V106.262ZM634.727 119.022C633.961 119.022 633.137 118.579 632.612 118.054C632.203 117.574 632.203 117.131 632.553 116.868C633.377 116.343 633.669 115.502 633.669 114.714C633.669 112.604 631.087 110.931 628.557 110.931H628.498C626.325 110.931 624.385 111.193 620.979 112.162C617.281 113.265 608.113 116.778 605.174 117.746C601.294 119.067 598.362 119.855 595.306 119.855C591.134 119.855 586.846 118.136 582.557 113.918C580.267 113.04 576.861 111.058 576.861 108.108C576.861 107.05 577.685 105.601 579.21 105.601C580.559 105.601 581.325 106.832 581.325 107.665C581.325 107.928 581.15 108.236 580.858 108.454C580.391 108.761 580.034 109.332 580.034 110.127C580.034 112.327 582.798 112.987 584.731 112.987C587.138 112.987 590.609 112.019 594.657 110.48C598.479 108.896 603.941 106.787 605.349 106.254C606.932 105.684 610.046 104.625 613.518 104.625C616.69 104.625 621.037 105.376 626.441 109.422C629.023 109.557 631.262 110.172 633.844 112.019C636.309 113.775 636.958 115.667 636.958 116.553C636.958 118.182 635.668 119.015 634.727 119.015V119.022ZM689.427 113.085C686.371 111.981 677.969 108.378 675.154 107.455C672.747 106.705 670.398 106.269 668.101 106.269H668.043C665.22 106.269 662.522 107.59 661.231 109.572C662.821 109.572 665.286 109.925 669.283 111.291C673.338 112.567 680.74 115.517 683.322 116.35C686.261 117.228 689.018 117.979 691.724 117.979C694.838 117.979 697.537 117.011 699.01 114.594C696.129 114.946 693.431 114.504 689.434 113.1L689.427 113.085ZM702.175 113.918C697.887 118.144 693.598 119.855 689.427 119.855C686.371 119.855 683.432 119.06 679.559 117.746C676.678 116.778 667.459 113.257 663.754 112.162C660.348 111.193 658.408 110.931 656.235 110.931H656.176C653.653 110.931 651.064 112.604 651.064 114.714C651.064 115.502 651.355 116.343 652.18 116.868C652.588 117.131 652.588 117.574 652.121 118.054C651.596 118.579 650.772 119.022 650.006 119.022C649.065 119.022 647.774 118.189 647.774 116.56C647.774 115.682 648.424 113.79 650.889 112.026C653.471 110.18 655.71 109.564 658.291 109.429C663.696 105.384 668.043 104.633 671.215 104.633C674.738 104.633 677.794 105.691 679.384 106.262C680.791 106.787 686.254 108.904 690.076 110.488C694.131 112.026 697.654 112.995 700.002 112.995C701.942 112.995 704.699 112.334 704.699 110.135C704.699 109.347 704.349 108.769 703.875 108.461C703.583 108.243 703.408 107.936 703.408 107.673C703.408 106.84 704.174 105.609 705.523 105.609C707.047 105.609 707.872 107.057 707.872 108.116C707.872 111.066 704.466 113.04 702.175 113.926V113.918Z" fill="white"/>
<path d="M519.08 536.28V539H511.2V525.4H519.08V528.12H514.2V530.82H518.88V533.54H514.2V536.28H519.08ZM530.493 534V539H527.493V534C527.493 532.96 527.093 532.4 526.153 532.4C525.213 532.4 524.473 533.4 524.473 534.6V539H521.473V530.18H524.473V531.26C525.073 530.5 526.013 529.98 527.173 529.98C529.533 529.98 530.493 531.6 530.493 534ZM536.367 532.5V539H533.387V532.5H531.787V530.18H533.387V526.82H536.367V530.18H537.967V532.5H536.367ZM544.539 532.4C543.419 532.4 542.559 533.54 542.559 534.6V539H539.559V530.18H542.559V531.26C543.019 530.6 543.779 529.98 544.879 529.98C545.139 529.98 545.539 530.06 545.779 530.18V532.9H545.739C545.439 532.54 544.999 532.4 544.539 532.4ZM554.077 534.6C554.077 533.44 553.177 532.4 551.977 532.4C550.777 532.4 549.877 533.44 549.877 534.6C549.877 535.76 550.777 536.8 551.977 536.8C553.177 536.8 554.077 535.76 554.077 534.6ZM557.077 530.2V539H554.077V537.94C553.477 538.84 552.177 539.2 551.057 539.2C548.557 539.2 546.677 537.04 546.677 534.6C546.677 532.16 548.557 529.98 551.057 529.98C552.177 529.98 553.297 530.3 554.077 531.26V530.2H557.077ZM564.461 532.4C563.341 532.4 562.481 533.54 562.481 534.6V539H559.481V530.18H562.481V531.26C562.941 530.6 563.701 529.98 564.801 529.98C565.061 529.98 565.461 530.06 565.701 530.18V532.9H565.661C565.361 532.54 564.921 532.4 564.461 532.4Z" fill="white"/>
</g>
<defs>
<linearGradient id="paint0_linear_64_130" x1="680.514" y1="-165.432" x2="683.356" y2="412.433" gradientUnits="userSpaceOnUse">
<stop stop-color="#324587"/>
<stop offset="1" stop-color="#0C1121"/>
</linearGradient>
<clipPath id="clip0_64_130">
<rect width="1280" height="544" fill="white"/>
</clipPath>
</defs>
</svg>
