<svg width="440" height="778" viewBox="0 0 440 778" fill="none" xmlns="http://www.w3.org/2000/svg">
<g clip-path="url(#clip0_64_64)">
<path d="M-95 389.181L381.171 488.909L443.695 190.38V190.38C399.593 167.782 350.295 157.264 300.811 159.894L298.679 160.008L208.759 170.295C166.239 175.16 124.327 157.119 98.6333 122.893V122.893C78.3507 95.8744 47.6625 78.6054 14.0412 75.2907L-28.3832 71.1082L-95 389.181Z" fill="#F39200"/>
<path d="M-33 833L192.5 815.5L511.5 911.5L469.951 186.667V186.667C423.04 170.698 372.738 167.434 324.158 177.207L322.064 177.628L234.584 200.836C193.218 211.811 149.134 200.033 118.752 169.891V169.891C94.7687 146.097 61.9022 133.456 28.1554 135.048L-14.4273 137.057L-33 833Z" fill="url(#paint0_linear_64_64)"/>
</g>
<defs>
<linearGradient id="paint0_linear_64_64" x1="225.936" y1="894.046" x2="271.767" y2="144.203" gradientUnits="userSpaceOnUse">
<stop stop-color="#324587"/>
<stop offset="1" stop-color="#0C1121"/>
</linearGradient>
<clipPath id="clip0_64_64">
<rect width="440" height="778" fill="white" transform="matrix(1 0 0 -1 0 778)"/>
</clipPath>
</defs>
</svg>
