<svg width="720" height="673" viewBox="0 0 720 673" fill="none" xmlns="http://www.w3.org/2000/svg">
<path d="M-426 590.75L1057.38 708.192L1099.93 170.816L1031.67 154.414C931.299 130.298 827.801 121.867 724.851 129.422L648.171 135.049L353.36 167.735C240.518 180.246 126.717 154.918 29.8329 95.7306V95.7306C-48.1638 48.0819 -137.488 22.1674 -228.875 20.6748L-380.67 18.1955L-426 590.75Z" fill="#F39200"/>
<path d="M-237 822L1194.02 836.499L1194.02 147.54L1180.77 142.773C1037.99 91.3985 883.246 83.2069 735.841 119.22V119.22L450.513 200.275C341.301 231.3 224.877 225.168 119.529 182.842V182.842C34.7185 148.767 -57.6637 138.002 -148.036 151.664L-298.146 174.357L-237 822Z" fill="url(#paint0_linear_126_110)"/>
<defs>
<linearGradient id="paint0_linear_126_110" x1="477" y1="-162.501" x2="477" y2="807" gradientUnits="userSpaceOnUse">
<stop stop-color="#304383"/>
<stop offset="1" stop-color="#0C1122"/>
</linearGradient>
</defs>
</svg>
