<svg width="1440" height="463" viewBox="0 0 1440 463" fill="none" xmlns="http://www.w3.org/2000/svg">
<path d="M0.499958 455.501L1426.5 447.5L1357.67 161.54L1289.41 145.139C1189.04 121.022 1085.54 112.592 982.59 120.147L905.909 125.774L608.642 158.732C497.393 171.066 385.197 146.096 289.68 87.7433V87.7433C210.394 39.307 119.284 13.6791 26.3733 13.6791L0.499972 13.6791L0.499958 455.501Z" fill="#F39200"/>
<path d="M-5.31565 469.691L1445.99 464.638L1440.09 134.63V134.63C1297.91 80.3936 1140.83 69.9607 992.979 105.98V105.98L705.221 187.474C596.244 218.336 480.119 212.275 374.948 170.236V170.236C289.159 135.944 195.703 125.451 104.445 139.864L-5.19641 157.18L-5.31565 469.691Z" fill="url(#paint0_linear_113_98)"/>
<defs>
<linearGradient id="paint0_linear_113_98" x1="723.501" y1="69.8999" x2="723.721" y2="646.919" gradientUnits="userSpaceOnUse">
<stop stop-color="#304383"/>
<stop offset="1" stop-color="#0C1122"/>
</linearGradient>
</defs>
</svg>
