<svg width="124" height="48" viewBox="0 0 124 48" fill="none" xmlns="http://www.w3.org/2000/svg">
<path fill-rule="evenodd" clip-rule="evenodd" d="M5.88805 20.5268L22.9455 20.5428L22.9639 45.3502L7.37314 33.8316L5.88805 20.5268ZM5.01649 12.0054L41.6855 12.1284L41.0378 19.9386L5.7485 19.9466L5.01385 12.0054H5.01649ZM40.9351 20.5268L23.8776 20.5428L23.8592 45.3502L39.5974 33.8396L40.9351 20.5241V20.5268ZM41.1457 30.1417L41.5275 25.9733C41.5907 25.5188 41.6329 25.0321 41.6539 24.5642C41.675 24.1097 41.7803 23.6391 41.8014 23.1685C41.8014 22.6979 41.8856 22.2434 41.9278 21.7728L42.012 20.738C42.0331 20.5803 42.0542 20.5348 42.0542 20.4091C42.1384 19.468 42.2016 18.5295 42.2885 17.5723C42.3306 17.1498 42.4149 16.6632 42.436 16.1765L42.5624 14.8129C42.6045 14.3584 42.6887 13.8557 42.6887 13.4172C42.7098 12.9466 42.773 12.476 42.8151 12.0081C42.8783 11.476 43.0284 10.9573 42.3912 10.9734C41.0983 11.0054 39.7607 10.9573 38.4678 10.9573C31.914 10.9573 25.3811 10.8931 18.8273 10.8931C16.1968 10.8931 13.6295 10.8316 10.999 10.8316H7.05453C6.14347 10.8316 4.99805 10.7996 4.08436 10.8316C3.78681 10.8316 3.59723 10.9894 3.61829 11.3022L4.27658 17.1471C4.29764 17.3049 4.31871 17.4279 4.33977 17.5696C4.3819 17.8664 4.40297 18.1658 4.4451 18.4626C4.46616 18.7755 4.52936 19.0428 4.52936 19.3717C4.55042 19.591 4.57149 20.0936 4.61362 20.2808L5.03755 23.8369C5.05862 24.1177 5.10075 24.4626 5.14288 24.746L6.26723 34.5882L8.53699 36.2807C8.75027 36.4225 8.91879 36.5481 9.11101 36.7032C9.42962 36.9545 10.4249 37.6604 10.8304 37.9572C11.02 38.0989 11.2123 38.238 11.4018 38.3797L13.1213 39.6337C13.3346 39.7914 13.4609 39.885 13.6953 40.0561L14.8407 40.9011C15.0329 41.0428 15.2015 41.1524 15.4147 41.3075L21.7158 45.9304C21.8843 46.0722 22.0766 46.2112 22.2661 46.3369C23.2193 46.9652 23.4116 47.5294 24.1962 46.9331C24.3648 46.8074 24.557 46.6657 24.7466 46.5107C25.1073 46.2299 25.4891 45.9625 25.892 45.6657L28.1617 43.9732C29.6258 42.9064 31.2162 41.7005 32.7013 40.5882L40.677 34.6658C40.7718 34.5615 41.1299 30.3717 41.1431 30.1364L41.1457 30.1417Z" fill="#304383"/>
<path fill-rule="evenodd" clip-rule="evenodd" d="M22.1792 24.6931C22.1792 24.6931 19.3591 24.2225 17.8529 24.0514C17.2578 23.9899 16.9629 24.1129 16.9629 24.1129C16.9629 24.1129 16.2415 24.3161 15.8596 24.8348C15.4568 25.399 15.3936 26.292 15.3936 26.292L8.09717 25.1477C8.09717 25.1477 8.33152 26.7787 11.0463 28.0621C13.0396 29.0033 13.8664 29.4712 13.8664 29.4712L10.4723 34.3909C10.4723 34.3909 15.6042 33.4658 16.8787 31.4925C17.8766 29.9257 17.7055 27.3856 17.7055 27.3856C17.7055 27.3856 17.7476 26.3669 18.0451 25.6931C18.3006 25.0968 18.8088 24.8455 18.8088 24.8455C18.8088 24.8455 19.4249 24.6263 20.0595 24.5942C21.0364 24.546 22.1818 24.6878 22.1818 24.6878" fill="#304383"/>
<path fill-rule="evenodd" clip-rule="evenodd" d="M31.7997 29.2348C31.4601 29.1573 30.4858 28.6706 30.6754 28.3418C30.8228 28.2161 31.0361 28.3418 31.2915 28.184C31.4601 28.0904 31.6312 28.2001 31.6102 27.6974C31.2705 27.5557 30.9729 27.4621 30.657 27.6813C30.4437 27.8391 30.0856 28.0263 30.0619 28.3551C30.0197 28.7776 30.6122 29.2161 30.9097 29.4059C31.0151 29.4674 31.2073 29.5476 31.2915 29.6412C31.2073 29.8444 30.0619 30.2054 31.2494 31.0503C31.2073 31.2081 31.0809 31.2535 31.0572 31.4434C30.9519 32.1172 31.5233 32.2883 31.7576 32.5102C31.7155 32.5717 30.9097 33.2455 31.7787 33.5289C31.7155 33.7642 31.7576 33.8123 31.9261 33.9835L31.9893 34.061C31.9893 34.077 32.0104 34.077 32.0104 34.0931L32.0315 34.1091C31.9893 34.2187 31.9051 34.2669 31.8419 34.3284L32.0315 34.2669C32.0315 34.5182 32.0104 34.8631 32.0947 35.0503L32.1368 34.2054C32.2842 34.2214 32.3053 34.299 32.4343 34.331L32.2447 34.1118C32.5002 33.9086 32.5423 33.8925 32.4791 33.5637C32.6476 33.438 32.9241 33.3605 32.8609 33.077C32.8188 32.7803 32.6476 32.6706 32.5212 32.5129C32.7556 32.2295 33.2638 32.2936 33.1584 31.4621C33.1163 31.2589 33.0531 31.1653 32.9452 31.0557L33.1374 30.93C33.3059 30.8364 33.4981 30.5851 33.477 30.3337C33.477 29.9407 33.1795 29.8017 32.9267 29.6439C33.011 29.5503 33.2453 29.4861 33.4981 29.2669C33.5613 29.2054 33.6245 29.1733 33.6903 29.1252L34.0089 28.7803C34.1985 28.4514 34.1353 28.1225 33.8404 27.9033C33.2453 27.4648 33.2453 27.4327 32.6529 27.7161L32.5686 27.7482L32.5476 27.7642C32.5476 28.0771 32.6739 28.0771 32.8872 28.2027C33.1005 28.3284 33.3322 28.1867 33.5034 28.3605C33.6719 28.6894 32.7398 29.2214 32.379 29.2696C32.4001 28.4701 32.5265 27.4514 32.5265 26.6198C32.5265 26.307 32.5686 26.0557 32.5686 25.7589C32.5897 25.5557 32.5897 24.5824 32.6529 24.4434C32.7371 24.3177 32.7582 24.3017 32.8214 24.1306C33.0347 23.3471 32.142 22.5316 31.5496 23.315C31.4232 23.4862 31.3363 23.7696 31.4021 24.0664C31.4653 24.3953 31.6154 24.3632 31.6154 24.7723C31.6154 25.0851 31.6154 25.3685 31.6365 25.6653C31.6786 26.2455 31.6997 26.8712 31.7207 27.4354C31.7418 28.0156 31.8261 28.6894 31.805 29.2375M31.8471 30.0209L31.8682 30.6466C31.6128 30.6305 31.36 30.5984 31.3811 30.3498C31.4232 30.1466 31.6365 30.053 31.8471 30.0209ZM32.3343 30.6466L32.3553 29.9728C32.5897 30.0343 32.9715 30.2081 32.7793 30.4754C32.695 30.6172 32.4817 30.6332 32.3343 30.6466ZM31.9103 31.3524L31.9314 32.0877C31.8261 32.0262 31.5917 31.8204 31.5496 31.6947C31.4864 31.4594 31.7181 31.2883 31.9103 31.3498V31.3524ZM32.8872 25.6172C33.248 25.6493 33.6298 25.6011 33.9694 25.5557L36.3656 25.1787C36.9818 25.0691 37.9981 24.7402 38.509 24.4888L39.0382 24.176C39.1014 24.1279 39.1225 24.1279 39.2067 24.0664C39.3331 23.9888 39.736 23.6439 39.8018 23.5343C39.6965 23.5824 39.5464 23.5958 39.399 23.66C39.2726 23.7215 39.1014 23.7375 38.954 23.7856C38.4458 23.9568 36.7263 24.2883 36.176 24.3819L33.1637 24.7108C32.9715 24.7723 32.9715 24.8525 32.9294 25.0557C32.8872 25.2268 32.9083 25.4327 32.8872 25.6198V25.6172ZM31.3179 25.5396L31.2336 24.7723C31.2126 24.7402 31.2336 24.7402 31.2126 24.7241L31.1915 24.676C31.1704 24.5824 30.4279 24.5985 30.2804 24.5824C29.6221 24.5343 28.2029 24.3792 27.6289 24.2856C27.0548 24.192 26.5045 24.0664 25.9542 23.9728L24.7666 23.676C24.6192 23.6439 24.5112 23.5664 24.3638 23.5503C24.4902 23.7696 25.3828 24.3498 25.6777 24.4755C26.5677 24.8525 26.5045 24.8043 27.3524 25.0396C27.9238 25.1974 30.8097 25.6519 31.3179 25.5423V25.5396ZM26.2912 25.0691C26.3334 25.0904 26.3755 25.1109 26.4176 25.1305C26.5861 25.2402 26.9679 25.5236 27.2866 25.6332C27.6473 25.7749 28.0502 25.9461 28.4741 26.0263C28.9402 26.1038 30.9571 26.3872 31.3363 26.2616C31.3574 26.1359 31.3152 25.807 31.2942 25.6813C30.0856 25.6493 28.6215 25.5557 27.4551 25.2883C27.1154 25.2268 26.7757 25.1787 26.436 25.0691C26.3307 25.0209 26.3307 25.037 26.2886 25.0691H26.2912ZM32.8662 26.3231C33.248 26.4166 35.157 26.2134 35.6862 26.0717C36.0891 25.9621 36.5341 25.8525 36.8738 25.6787C37.0871 25.5851 37.7217 25.2562 37.8507 25.053L36.5789 25.3498C35.7942 25.5076 34.6067 25.6947 33.822 25.7268C32.9531 25.7589 32.8451 25.6947 32.8688 26.3231H32.8662ZM32.803 26.9969C33.4823 27.0904 35.0938 26.9193 35.7942 26.6038C35.8785 26.5557 36.4314 26.2428 36.5157 26.1493C36.2181 26.1813 35.8574 26.307 35.5836 26.3525C35.2649 26.414 34.8831 26.4621 34.5856 26.4942C34.2038 26.5423 33.1216 26.5102 32.9741 26.5717C32.7608 26.6493 32.8056 26.7589 32.8056 26.9942L32.803 26.9969ZM31.0203 26.9487L31.4232 26.9648C31.4653 26.8391 31.4232 26.6198 31.3811 26.4781C30.0224 26.4621 29.8328 26.5102 28.4741 26.291C28.2187 26.2428 27.9238 26.1493 27.6684 26.1332C27.6684 26.1332 27.6894 26.1332 27.6894 26.1493H27.7105L27.987 26.3364C28.1134 26.3846 28.2213 26.446 28.3477 26.5075C28.7295 26.7108 29.1324 26.7883 29.5563 26.8364C30.0645 26.8846 30.3831 26.946 31.0203 26.946V26.9487ZM32.25 32.1359L32.2711 31.3364C32.4844 31.3043 32.7371 31.446 32.6739 31.6974C32.6318 31.8685 32.3975 32.0744 32.25 32.1359Z" fill="#304383"/>
<path fill-rule="evenodd" clip-rule="evenodd" d="M37.1904 13.9672V15.8629H38.2305C38.4859 15.8629 38.6755 15.8147 38.7597 15.7372C38.8861 15.6276 38.952 15.4404 38.952 15.173H39.0994V16.8335H38.952C38.9309 16.5982 38.8888 16.4564 38.8677 16.3789C38.8256 16.3014 38.7624 16.2372 38.6544 16.1917C38.5702 16.1436 38.4201 16.1302 38.2305 16.1302H37.1904V17.6971C37.1904 17.9163 37.1904 18.042 37.2115 18.0901C37.2325 18.1383 37.2536 18.1677 37.3168 18.1998C37.3589 18.2318 37.4432 18.2479 37.5722 18.2479H38.3779C38.6333 18.2479 38.8229 18.2318 38.952 18.1864C39.0784 18.1543 39.1863 18.0768 39.3127 17.9671C39.4391 17.8094 39.5892 17.5901 39.7366 17.3094H39.8841L39.4812 18.4992H35.8317V18.3736H36.0002C36.1055 18.3736 36.2135 18.3415 36.3188 18.296C36.4031 18.2479 36.4452 18.2024 36.4663 18.1249C36.4873 18.0473 36.5084 17.8896 36.5084 17.6543V14.5527C36.5084 14.2399 36.4873 14.05 36.4241 13.9885C36.3399 13.895 36.1898 13.8468 36.0002 13.8468H35.8317V13.7051H39.4812L39.5233 14.772H39.397C39.3548 14.5046 39.2916 14.3335 39.2284 14.2399C39.1652 14.1463 39.081 14.0821 38.973 14.0367C38.8677 13.9885 38.7176 13.9752 38.4859 13.9752H37.193L37.1904 13.9672ZM30.4443 13.6998H31.7161L34.6231 17.304V14.5447C34.6231 14.2479 34.581 14.0581 34.5178 13.9805C34.4335 13.8869 34.2834 13.8388 34.1149 13.8388H33.9464V13.6971H35.6V13.8388H35.4315C35.2182 13.8388 35.0918 13.9003 35.0075 14.026C34.9443 14.1035 34.9233 14.2613 34.9233 14.542V18.5687H34.7969L31.6792 14.7131V17.6597C31.6792 17.9564 31.7214 18.1463 31.7846 18.2238C31.8688 18.3174 31.9978 18.3655 32.1874 18.3655H32.356V18.4912H30.7023V18.3655H30.8709C31.0842 18.3655 31.2105 18.304 31.2948 18.1784C31.358 18.1008 31.3791 17.927 31.3791 17.6623V14.3388C31.2316 14.1677 31.1447 14.0581 31.0605 14.0099C30.9973 13.9618 30.8919 13.9163 30.7418 13.8682C30.6786 13.8522 30.5733 13.8361 30.4443 13.8361V13.6944V13.6998ZM27.9191 13.8575C27.4952 13.8575 27.1766 14.0153 26.9001 14.3281C26.5815 14.7345 26.434 15.3147 26.434 16.0687C26.434 16.8228 26.6026 17.4645 26.9212 17.8869C27.1766 18.1998 27.5163 18.3575 27.9402 18.3575C28.3641 18.3575 28.7459 18.1864 29.0224 17.8415C29.32 17.4805 29.4674 16.9324 29.4674 16.181C29.4674 15.3495 29.2989 14.7399 28.9803 14.3468C28.7249 14.018 28.3852 13.8602 27.9191 13.8602V13.8575ZM28.0034 13.6062C28.5985 13.6062 29.1277 13.8415 29.5938 14.3121C30.0388 14.7827 30.2521 15.3789 30.2521 16.0821C30.2521 16.7853 30.0388 17.4137 29.5727 17.8842C29.1277 18.3709 28.5748 18.6062 27.9402 18.6062C27.3056 18.6062 26.7316 18.3709 26.3076 17.9003C25.8626 17.4457 25.6283 16.8335 25.6283 16.0821C25.6283 15.3308 25.8837 14.7024 26.3919 14.2185C26.8369 13.8121 27.3688 13.6062 28.0034 13.6062ZM25.2886 13.6998L25.3308 14.8281H25.2044C25.1833 14.6409 25.1412 14.4992 25.099 14.4057C25.0358 14.2639 24.9305 14.1704 24.8226 14.1089C24.6962 14.0474 24.525 14.0153 24.3354 14.0153H23.6771V17.6677C23.6771 17.9645 23.6982 18.1543 23.7614 18.2318C23.8457 18.3254 23.9958 18.3736 24.1643 18.3736H24.3328V18.4992H22.3395V18.3736H22.508C22.7002 18.3736 22.8477 18.3121 22.932 18.1864C22.9741 18.1088 22.9952 17.9351 22.9952 17.6703V14.018H22.4448C22.2105 14.018 22.063 14.034 21.9577 14.0661C21.8524 14.1142 21.7444 14.1917 21.6602 14.3174C21.5759 14.4591 21.5127 14.6142 21.5127 14.8335H21.3652L21.4284 13.7051H25.2886V13.6998ZM18.2897 16.034H18.4793C18.9454 16.034 19.2851 15.9404 19.4984 15.7372C19.7327 15.55 19.8591 15.2987 19.8591 14.9859C19.8591 14.673 19.7538 14.4538 19.5826 14.2639C19.3904 14.0768 19.1376 13.9832 18.8401 13.9832C18.7137 13.9832 18.5215 13.9992 18.2897 14.0447V16.034ZM21.6417 18.4939H20.391L18.8006 16.2532C18.6742 16.2693 18.5662 16.2693 18.503 16.2693H18.3977C18.3766 16.2693 18.3345 16.2693 18.2924 16.2532V17.649C18.2924 17.9618 18.3345 18.1356 18.3977 18.2131C18.482 18.3228 18.611 18.3709 18.8006 18.3709H18.9691V18.4965H16.9547V18.3709H17.1233C17.3366 18.3709 17.4629 18.3094 17.5472 18.1677C17.6104 18.1062 17.6315 17.9324 17.6315 17.6516V14.5634C17.6315 14.2506 17.5893 14.0607 17.5261 13.9992C17.4419 13.8896 17.3129 13.8415 17.1233 13.8415H16.9547V13.6998H18.6716C19.1797 13.6998 19.5405 13.7479 19.7748 13.8254C20.0092 13.8869 20.2198 14.0286 20.391 14.2319C20.5595 14.419 20.6464 14.6704 20.6464 14.9377C20.6464 15.2345 20.5411 15.4859 20.3489 15.7051C20.1566 15.9244 19.8617 16.0821 19.4799 16.1597L20.4568 17.5393C20.6701 17.8522 20.8597 18.0714 21.0308 18.165C21.1783 18.2746 21.3916 18.3361 21.647 18.3682V18.4939H21.6417ZM14.2189 13.8549C13.795 13.8549 13.4553 14.0126 13.1999 14.3254C12.8813 14.7319 12.7338 15.3121 12.7338 16.0661C12.7338 16.8201 12.8813 17.4618 13.221 17.8842C13.4764 18.1971 13.8161 18.3548 14.2189 18.3548C14.6639 18.3548 15.0247 18.1837 15.3222 17.8388C15.6198 17.4778 15.7461 16.9297 15.7461 16.1784C15.7461 15.3468 15.5987 14.7372 15.2801 14.3442C15.0247 14.0153 14.6639 13.8575 14.2189 13.8575V13.8549ZM14.2821 13.6035C14.8983 13.6035 15.4275 13.8388 15.8725 14.3094C16.3386 14.78 16.5519 15.3762 16.5519 16.0794C16.5519 16.7826 16.3175 17.411 15.8725 17.8816C15.4275 18.3682 14.8746 18.6035 14.24 18.6035C13.6054 18.6035 13.0314 18.3682 12.5864 17.8976C12.1414 17.4431 11.9281 16.8308 11.9281 16.0794C11.9281 15.3281 12.1835 14.6998 12.6917 14.2158C13.1367 13.8094 13.6686 13.6035 14.2821 13.6035ZM8.38653 18.149C8.66301 18.2105 8.91579 18.2425 9.19227 18.2425C9.6162 18.2425 9.93481 18.149 10.1455 17.9618C10.3587 17.7746 10.4851 17.5393 10.4851 17.2399C10.4851 17.0687 10.4219 16.8789 10.3377 16.7078C10.2324 16.5367 10.0612 16.411 9.85055 16.3014C9.6162 16.2078 9.34236 16.1597 9.00268 16.1597H8.64194C8.53662 16.1757 8.45236 16.1757 8.38653 16.1917V18.1516V18.149ZM8.38653 15.8602C8.47079 15.8762 8.57612 15.8923 8.68407 15.8923C8.7894 15.9083 8.91842 15.9083 9.04481 15.9083C9.38449 15.9083 9.6399 15.8762 9.80842 15.7987C9.97694 15.7212 10.106 15.6115 10.2113 15.4538C10.2956 15.3121 10.3377 15.1409 10.3377 14.9511C10.3377 14.6704 10.2324 14.4351 9.99801 14.2452C9.78472 14.042 9.44768 13.9484 9.02112 13.9484C8.78677 13.9484 8.57612 13.9645 8.3839 14.026V15.8602H8.38653ZM10.2113 16.0474C10.551 16.1249 10.7827 16.2345 10.9538 16.3923C11.1671 16.6115 11.2935 16.8789 11.2935 17.1917C11.2935 17.427 11.2092 17.6463 11.0592 17.8655C10.9117 18.0848 10.7195 18.2425 10.443 18.3522C10.1876 18.4457 9.80579 18.4939 9.27653 18.4939H7.02783V18.3682H7.22005C7.40964 18.3682 7.55973 18.3067 7.64399 18.181C7.68612 18.1035 7.72825 17.9137 7.72825 17.649V14.5607C7.72825 14.2639 7.68612 14.0741 7.62292 13.9966C7.53866 13.8869 7.38857 13.8388 7.22005 13.8388H7.02783V13.6971H9.08431C9.46611 13.6971 9.76366 13.7292 9.99538 13.7907C10.335 13.8682 10.6115 14.026 10.78 14.2452C10.9696 14.4484 11.0565 14.6998 11.0565 14.9805C11.0565 15.2319 10.9933 15.4351 10.8432 15.6222C10.6958 15.8094 10.4825 15.9511 10.206 16.0447L10.2113 16.0474Z" fill="#304383"/>
<path fill-rule="evenodd" clip-rule="evenodd" d="M24.0247 7.24329C24.3223 7.32083 24.575 7.60425 24.5987 7.97858C24.6198 8.46521 24.2591 8.85558 23.793 8.87162C23.3269 8.90371 22.9241 8.52671 22.903 8.05612C22.8819 7.66307 23.1374 7.36628 23.4112 7.25666C23.0505 6.53474 22.4343 5.4064 20.3989 4.48394C20.5463 4.28073 20.865 3.91977 21.0361 3.55881C21.7576 3.99731 22.7108 5.10961 23.2005 6.01869H23.2427C23.2216 5.51602 22.8398 4.0294 21.5259 2.83689C21.6733 2.6016 21.9287 2.27272 22.0973 1.94384C22.5633 2.27272 23.0952 3.55881 23.5192 5.31282L23.5402 5.29677C23.5613 4.46522 23.3059 2.33422 22.7134 1.08021C22.9056 0.86096 23.2216 0.390373 23.4349 0C23.6903 0.377004 24.03 0.799462 24.2196 1.01871C23.7324 2.31817 23.6455 4.46522 23.7324 5.29677H23.7746C24.03 3.52673 24.475 2.19518 24.8989 1.81818C25.1122 2.13101 25.386 2.44384 25.5572 2.66309C24.3486 3.96255 24.0932 5.46789 24.1142 5.98661H24.1353C24.5592 5.02939 25.4282 3.8556 26.0865 3.33956C26.2997 3.68448 26.6368 4.0294 26.8079 4.20052C24.8568 5.31282 24.3275 6.48928 24.03 7.24062M14.3795 4.18448H14.3585C13.5317 4.18448 12.6838 4.34223 11.8333 4.60694C10.7932 4.93581 7.75985 6.2219 6.65656 6.61228C5.21361 7.11495 4.23935 7.27003 3.19926 7.14436C3.72852 8.00532 4.70541 8.35024 5.82976 8.35024C6.80665 8.35024 7.80198 8.08286 8.86313 7.77003C9.79526 7.47324 12.4679 6.42244 13.9319 5.96789C15.3749 5.48126 16.2649 5.3556 16.8389 5.3556C16.3728 4.64972 15.3959 4.17913 14.3795 4.17913V4.18448ZM20.8913 8.72991C20.6148 8.72991 20.3173 8.57216 20.1277 8.385C19.9802 8.21387 19.9802 8.05612 20.1066 7.96254C20.4042 7.77537 20.5095 7.47591 20.5095 7.19516C20.5095 6.44383 19.5774 5.84757 18.6637 5.84757H18.6426C17.8579 5.84757 17.1575 5.94115 15.9278 6.28607C14.5928 6.67912 11.283 7.93045 10.2218 8.27537C8.821 8.74596 7.76248 9.0267 6.6592 9.0267C5.15304 9.0267 3.60476 8.41441 2.05648 6.91174C1.22967 6.59891 0 5.89303 0 4.84223C0 4.46522 0.297544 3.94918 0.847869 3.94918C1.335 3.94918 1.61148 4.38768 1.61148 4.68448C1.61148 4.77806 1.54828 4.88768 1.44296 4.96522C1.27444 5.07485 1.14541 5.27806 1.14541 5.56148C1.14541 6.3449 2.14337 6.58019 2.84115 6.58019C3.71009 6.58019 4.96346 6.23527 6.42485 5.68715C7.80461 5.12298 9.77683 4.37164 10.285 4.1818C10.8564 3.9786 11.9808 3.60159 13.2341 3.60159C14.3795 3.60159 15.9489 3.86897 17.9 5.31014C18.8322 5.35827 19.6406 5.57752 20.5727 6.23527C21.4627 6.86094 21.697 7.53473 21.697 7.85024C21.697 8.43045 21.231 8.72724 20.8913 8.72724V8.72991ZM40.6398 6.61495C39.5365 6.2219 36.5031 4.93848 35.4868 4.60961C34.6178 4.34223 33.7699 4.18715 32.9405 4.18715H32.9194C31.9004 4.18715 30.9262 4.65774 30.4601 5.36362C31.0341 5.36362 31.9241 5.48928 33.3671 5.97591C34.8311 6.43046 37.5037 7.48126 38.4359 7.77805C39.497 8.09088 40.4923 8.35826 41.4692 8.35826C42.5936 8.35826 43.5678 8.01334 44.0997 7.15238C43.0596 7.27805 42.0854 7.1203 40.6424 6.6203L40.6398 6.61495ZM45.2425 6.91174C43.6942 8.41708 42.146 9.0267 40.6398 9.0267C39.5365 9.0267 38.4754 8.74328 37.0772 8.27537C36.0371 7.93045 32.7088 6.67645 31.3712 6.28607C30.1415 5.94115 29.4411 5.84757 28.6564 5.84757H28.6353C27.7243 5.84757 26.7895 6.44383 26.7895 7.19516C26.7895 7.47591 26.8948 7.77537 27.1924 7.96254C27.3398 8.05612 27.3398 8.21387 27.1713 8.385C26.9817 8.57216 26.6842 8.72991 26.4077 8.72991C26.068 8.72991 25.602 8.43312 25.602 7.85291C25.602 7.54008 25.8363 6.86629 26.7263 6.23795C27.6584 5.58019 28.4668 5.36094 29.3989 5.31282C31.3501 3.87164 32.9194 3.60427 34.0649 3.60427C35.3367 3.60427 36.4399 3.98127 37.014 4.18448C37.5222 4.37164 39.4944 5.12565 40.8741 5.68982C42.3382 6.23795 43.61 6.58286 44.4578 6.58286C45.1583 6.58286 46.1536 6.34757 46.1536 5.56415C46.1536 5.2834 46.0272 5.07752 45.856 4.9679C45.7507 4.89036 45.6875 4.78073 45.6875 4.68715C45.6875 4.39036 45.964 3.95186 46.4511 3.95186C47.0014 3.95186 47.299 4.4679 47.299 4.8449C47.299 5.8957 46.0693 6.59891 45.2425 6.91441V6.91174Z" fill="#304383"/>
<path d="M64.1219 14.3113H61.2939C60.9042 13.5974 60.188 13.2177 59.2295 13.2177C57.5838 13.2177 56.4911 14.4022 56.4911 16.2551C56.4911 18.2284 57.597 19.3835 59.4376 19.3835C60.7094 19.3835 61.5915 18.699 61.9785 17.5011H58.7319V15.5867H64.2957V18.0011C63.7585 19.838 62.0075 21.6776 59.2401 21.6776C56.0987 21.6776 53.8843 19.445 53.8843 16.2551C53.8843 13.0653 56.0829 10.8193 59.2243 10.8193C61.7363 10.8193 63.561 12.1241 64.1166 14.3113H64.1219Z" fill="#304383"/>
<path d="M70.0205 10.9372C72.5931 10.9372 73.8807 12.4399 73.8807 14.2928C73.8807 15.6297 73.1619 16.8918 71.5477 17.3757L73.9702 21.5976H71.0843L68.9014 17.5736H68.2879V21.5976H65.7285V10.9346H70.0205V10.9372ZM69.8704 13.095H68.2853V15.7367H69.8704C70.8289 15.7367 71.2765 15.234 71.2765 14.3998C71.2765 13.611 70.8263 13.095 69.8704 13.095Z" fill="#304383"/>
<path d="M75.4421 10.9395H77.9989V17.3191C77.9989 18.5811 78.6124 19.3084 79.8236 19.3084C81.0349 19.3084 81.6773 18.5785 81.6773 17.3191V10.9395H84.2341V17.3031C84.2341 20.2496 82.2013 21.7068 79.7762 21.7068C77.3511 21.7068 75.4395 20.2496 75.4395 17.3031V10.9395H75.4421Z" fill="#304383"/>
<path d="M90.1797 17.7737H88.5946V21.6025H86.0352V10.9395H90.1797C92.7523 10.9395 94.0399 12.4127 94.0399 14.3726C94.0399 16.1346 92.8576 17.7737 90.1797 17.7737ZM89.9849 15.7095C91.0012 15.7095 91.4357 15.1934 91.4357 14.3726C91.4357 13.5517 91.0012 13.0357 89.9849 13.0357H88.5946V15.7095H89.9849Z" fill="#304383"/>
<path d="M100.341 21.7069C97.3651 21.7069 94.9399 19.4448 94.9399 16.239C94.9399 13.0331 97.3624 10.7871 100.341 10.7871C103.319 10.7871 105.709 13.0358 105.709 16.239C105.709 19.4422 103.316 21.7069 100.341 21.7069ZM100.341 19.3379C102.015 19.3379 103.108 18.1079 103.108 16.239C103.108 14.37 102.015 13.14 100.341 13.14C98.6658 13.14 97.5599 14.3406 97.5599 16.239C97.5599 18.1374 98.6369 19.3379 100.341 19.3379Z" fill="#304383"/>
<path d="M59.2137 36.5312H54.3213V25.8682H59.0478C61.1885 25.8682 62.4577 26.9457 62.4577 28.6329C62.4577 29.9243 61.6941 30.7585 60.6777 31.0633C61.9047 31.3227 62.6973 32.4163 62.6973 33.6302C62.6973 35.3922 61.4255 36.5312 59.211 36.5312H59.2137ZM58.5554 27.951H56.8807V30.1837H58.5554C59.3927 30.1837 59.8561 29.804 59.8561 29.074C59.8561 28.3441 59.3927 27.951 58.5554 27.951ZM58.7344 32.082H56.8807V34.435H58.766C59.6192 34.435 60.1116 34.0393 60.1116 33.2799C60.1116 32.5205 59.5876 32.0794 58.7344 32.0794V32.082Z" fill="#304383"/>
<path d="M69.154 36.6385C66.1785 36.6385 63.7534 34.3765 63.7534 31.1706C63.7534 27.9647 66.1759 25.7188 69.154 25.7188C72.1321 25.7188 74.5229 27.9674 74.5229 31.1706C74.5229 34.3738 72.1294 36.6385 69.154 36.6385ZM69.154 34.2695C70.8287 34.2695 71.9214 33.0396 71.9214 31.1706C71.9214 29.3016 70.8287 28.0717 69.154 28.0717C67.4793 28.0717 66.3734 29.2722 66.3734 31.1706C66.3734 33.069 67.4503 34.2695 69.154 34.2695Z" fill="#304383"/>
<path d="M80.2422 25.8699C82.8148 25.8699 84.1024 27.3725 84.1024 29.2255C84.1024 30.5624 83.3835 31.8244 81.7694 32.3083L84.1919 36.5302H81.306L79.1231 32.5062H78.5096V36.5302H75.9502V25.8672H80.2422V25.8699ZM80.0921 28.0276H78.507V30.6693H80.0921C81.0506 30.6693 81.4982 30.1666 81.4982 29.3324C81.4982 28.5436 81.0479 28.0276 80.0921 28.0276Z" fill="#304383"/>
<path d="M85.1396 25.8682H93.2602V27.9484H90.4796V36.5286H87.9229V27.9484H85.1423V25.8682H85.1396Z" fill="#304383"/>
<path d="M99.5163 36.6385C96.5408 36.6385 94.1157 34.3765 94.1157 31.1706C94.1157 27.9647 96.5382 25.7188 99.5163 25.7188C102.494 25.7188 104.885 27.9674 104.885 31.1706C104.885 34.3738 102.492 36.6385 99.5163 36.6385ZM99.5163 34.2695C101.191 34.2695 102.284 33.0396 102.284 31.1706C102.284 29.3016 101.191 28.0717 99.5163 28.0717C97.8416 28.0717 96.7357 29.2722 96.7357 31.1706C96.7357 33.069 97.8126 34.2695 99.5163 34.2695Z" fill="#304383"/>
<path d="M115.707 25.8682V36.5312H113.15L108.874 29.9537V36.5312H106.314V25.8682H108.874L113.15 32.4751V25.8682H115.707Z" fill="#304383"/>
<path d="M124 27.9484H120.127V30.1061H123.553V32.1115H120.127V34.451H124V36.5312H117.567V25.8682H124V27.9484Z" fill="#304383"/>
</svg>
