<svg width="113" height="43" viewBox="0 0 113 43" fill="none" xmlns="http://www.w3.org/2000/svg">
<path fill-rule="evenodd" clip-rule="evenodd" d="M5.36551 18.7055L20.9098 18.7201L20.9266 41.3268L6.71886 30.83L5.36551 18.7055ZM4.57126 10.9401L37.9873 11.0522L37.397 18.1694L5.23834 18.1768L4.56886 10.9401H4.57126ZM37.3035 18.7055L21.7592 18.7201L21.7424 41.3268L36.0845 30.8373L37.3035 18.7031V18.7055ZM37.4954 27.4675L37.8434 23.6688C37.901 23.2546 37.9393 22.8112 37.9585 22.3848C37.9777 21.9705 38.0737 21.5417 38.0929 21.1129C38.0929 20.684 38.1697 20.2698 38.2081 19.8409L38.2849 18.898C38.3041 18.7542 38.3233 18.7128 38.3233 18.5983C38.4001 17.7406 38.4576 16.8854 38.5368 16.0131C38.5752 15.6281 38.652 15.1846 38.6712 14.7412L38.7864 13.4985C38.8248 13.0843 38.9016 12.6262 38.9016 12.2266C38.9208 11.7978 38.9784 11.3689 39.0167 10.9425C39.0743 10.4576 39.2111 9.98494 38.6304 9.99956C37.4522 10.0288 36.2333 9.98494 35.0551 9.98494C29.0826 9.98494 23.1294 9.92646 17.1569 9.92646C14.7597 9.92646 12.4202 9.87042 10.023 9.87042H6.42851C5.59827 9.87042 4.55447 9.84118 3.72183 9.87042C3.45068 9.87042 3.27791 10.0142 3.29711 10.2993L3.89699 15.6256C3.91619 15.7694 3.93538 15.8815 3.95458 16.0106C3.99297 16.2811 4.01217 16.554 4.05056 16.8244C4.06976 17.1095 4.12735 17.3532 4.12735 17.6529C4.14654 17.8527 4.16574 18.3108 4.20413 18.4813L4.59046 21.722C4.60966 21.9778 4.64805 22.2922 4.68644 22.5504L5.71105 31.5195L7.77946 33.0619C7.97382 33.191 8.12739 33.3056 8.30256 33.4469C8.5929 33.6759 9.49993 34.3192 9.86946 34.5896C10.0422 34.7188 10.2174 34.8455 10.3902 34.9746L11.9571 36.1174C12.1514 36.2611 12.2666 36.3464 12.4802 36.5024L13.524 37.2723C13.6991 37.4015 13.8527 37.5014 14.0471 37.6427L19.7892 41.8556C19.9428 41.9847 20.1179 42.1114 20.2907 42.2259C21.1593 42.7985 21.3345 43.3126 22.0496 42.7693C22.2031 42.6548 22.3783 42.5256 22.5511 42.3843C22.8798 42.1285 23.2277 41.8848 23.5949 41.6143L25.6633 40.072C26.9974 39.0998 28.4467 38.0009 29.8001 36.9872L37.0683 31.5902C37.1547 31.4952 37.481 27.677 37.493 27.4626L37.4954 27.4675Z" fill="white"/>
<path fill-rule="evenodd" clip-rule="evenodd" d="M20.2114 22.5028C20.2114 22.5028 17.6415 22.074 16.269 21.918C15.7267 21.862 15.4579 21.9741 15.4579 21.9741C15.4579 21.9741 14.8005 22.1593 14.4525 22.632C14.0854 23.1461 14.0278 23.9599 14.0278 23.9599L7.37866 22.917C7.37866 22.917 7.59222 24.4034 10.0662 25.5729C11.8826 26.4306 12.6361 26.857 12.6361 26.857L9.54305 31.3403C9.54305 31.3403 14.2198 30.4973 15.3811 28.6991C16.2906 27.2712 16.1346 24.9565 16.1346 24.9565C16.1346 24.9565 16.173 24.0281 16.4441 23.4141C16.6769 22.8707 17.14 22.6417 17.14 22.6417C17.14 22.6417 17.7015 22.4419 18.2798 22.4127C19.17 22.3688 20.2138 22.4979 20.2138 22.4979" fill="white"/>
<path fill-rule="evenodd" clip-rule="evenodd" d="M28.9792 26.6414C28.6697 26.5708 27.7818 26.1273 27.9546 25.8276C28.089 25.7131 28.2833 25.8276 28.5161 25.6838C28.6697 25.5986 28.8256 25.6985 28.8064 25.2404C28.4969 25.1112 28.2257 25.026 27.9378 25.2258C27.7434 25.3695 27.4171 25.5401 27.3955 25.8398C27.3571 26.2248 27.897 26.6244 28.1682 26.7974C28.2641 26.8534 28.4393 26.9265 28.5161 27.0118C28.4393 27.197 27.3955 27.5259 28.4777 28.2959C28.4393 28.4396 28.3241 28.481 28.3025 28.654C28.2065 29.2681 28.7272 29.424 28.9408 29.6262C28.9024 29.6823 28.1682 30.2963 28.96 30.5546C28.9024 30.769 28.9408 30.8129 29.0944 30.9688L29.152 31.0395C29.152 31.0541 29.1712 31.0541 29.1712 31.0687L29.1904 31.0833C29.152 31.1832 29.0752 31.2271 29.0176 31.2831L29.1904 31.2271C29.1904 31.4561 29.1712 31.7704 29.2479 31.941L29.2863 31.171C29.4207 31.1857 29.4399 31.2563 29.5575 31.2856L29.3847 31.0858C29.6175 30.9006 29.6559 30.886 29.5983 30.5863C29.7519 30.4717 30.0038 30.4011 29.9462 30.1428C29.9078 29.8723 29.7519 29.7724 29.6367 29.6287C29.8502 29.3704 30.3133 29.4289 30.2174 28.6711C30.179 28.4859 30.1214 28.4006 30.023 28.3007L30.1982 28.1862C30.3517 28.1009 30.5269 27.8719 30.5077 27.6429C30.5077 27.2847 30.2366 27.158 30.0062 27.0142C30.083 26.9289 30.2965 26.8705 30.5269 26.6707C30.5845 26.6146 30.6421 26.5854 30.7021 26.5415L30.9924 26.2272C31.1652 25.9275 31.1076 25.6278 30.8388 25.428C30.2965 25.0284 30.2965 24.9991 29.7567 25.2574L29.6799 25.2867L29.6607 25.3013C29.6607 25.5864 29.7758 25.5864 29.9702 25.7009C30.1646 25.8154 30.3757 25.6863 30.5317 25.8446C30.6853 26.1443 29.8358 26.6292 29.5071 26.6731C29.5263 25.9445 29.6415 25.0162 29.6415 24.2584C29.6415 23.9733 29.6799 23.7443 29.6799 23.4738C29.6991 23.2887 29.6991 22.4017 29.7567 22.275C29.8334 22.1605 29.8526 22.1459 29.9102 21.99C30.1046 21.276 29.2911 20.5329 28.7512 21.2468C28.6361 21.4027 28.5569 21.661 28.6169 21.9315C28.6745 22.2312 28.8112 22.2019 28.8112 22.5747C28.8112 22.8598 28.8112 23.1181 28.8304 23.3886C28.8688 23.9173 28.888 24.4875 28.9072 25.0016C28.9264 25.5303 29.0032 26.1443 28.984 26.6438M29.0224 27.3578L29.0416 27.9279C28.8088 27.9133 28.5785 27.8841 28.5977 27.6575C28.6361 27.4723 28.8304 27.387 29.0224 27.3578ZM29.4663 27.9279L29.4855 27.3139C29.6991 27.37 30.047 27.5283 29.8718 27.772C29.795 27.9011 29.6007 27.9158 29.4663 27.9279ZM29.08 28.5712L29.0992 29.2413C29.0032 29.1852 28.7896 28.9976 28.7512 28.8831C28.6937 28.6687 28.9048 28.5127 29.08 28.5688V28.5712ZM29.9702 23.3447C30.2989 23.3739 30.6469 23.3301 30.9564 23.2887L33.14 22.9451C33.7015 22.8452 34.6277 22.5455 35.0932 22.3165L35.5755 22.0314C35.6331 21.9875 35.6523 21.9875 35.7291 21.9315C35.8443 21.8608 36.2114 21.5465 36.2714 21.4466C36.1754 21.4905 36.0387 21.5026 35.9043 21.5611C35.7891 21.6172 35.6331 21.6318 35.4988 21.6756C35.0357 21.8316 33.4687 22.1337 32.9672 22.219L30.2222 22.5187C30.047 22.5747 30.047 22.6478 30.0086 22.833C29.9702 22.989 29.9894 23.1766 29.9702 23.3471V23.3447ZM28.5401 23.274L28.4633 22.5747C28.4441 22.5455 28.4633 22.5455 28.4441 22.5309L28.4249 22.487C28.4057 22.4017 27.729 22.4164 27.5947 22.4017C26.9948 22.3579 25.7014 22.2166 25.1783 22.1313C24.6552 22.046 24.1537 21.9315 23.6522 21.8462L22.57 21.5757C22.4356 21.5465 22.3373 21.4758 22.2029 21.4612C22.3181 21.661 23.1315 22.1898 23.4003 22.3043C24.2113 22.6478 24.1537 22.604 24.9264 22.8184C25.4471 22.9622 28.077 23.3764 28.5401 23.2765V23.274ZM23.9593 22.8452C23.9977 22.8647 24.0361 22.8834 24.0745 22.9012C24.2281 23.0011 24.576 23.2594 24.8664 23.3593C25.1951 23.4885 25.5622 23.6444 25.9486 23.7175C26.3733 23.7882 28.2113 24.0464 28.5569 23.9319C28.5761 23.8174 28.5377 23.5177 28.5185 23.4032C27.4171 23.3739 26.0829 23.2887 25.0199 23.045C24.7104 22.989 24.4009 22.9451 24.0913 22.8452C23.9953 22.8013 23.9953 22.816 23.9569 22.8452H23.9593ZM29.951 23.988C30.2989 24.0732 32.0386 23.8881 32.5209 23.7589C32.8881 23.659 33.2936 23.5591 33.6031 23.4007C33.7975 23.3155 34.3758 23.0158 34.4934 22.8306L33.3344 23.101C32.6193 23.2448 31.5371 23.4154 30.822 23.4446C30.0302 23.4738 29.9318 23.4154 29.9534 23.988H29.951ZM29.8934 24.602C30.5125 24.6873 31.981 24.5313 32.6193 24.2438C32.6961 24.1999 33.2 23.9149 33.2768 23.8296C33.0056 23.8588 32.6769 23.9733 32.4273 24.0148C32.137 24.0708 31.7891 24.1147 31.5179 24.1439C31.17 24.1878 30.1838 24.1585 30.0494 24.2146C29.855 24.2852 29.8958 24.3851 29.8958 24.5995L29.8934 24.602ZM28.2689 24.5581L28.6361 24.5727C28.6745 24.4582 28.6361 24.2584 28.5977 24.1293C27.3595 24.1147 27.1867 24.1585 25.9486 23.9587C25.7158 23.9149 25.4471 23.8296 25.2143 23.815C25.2143 23.815 25.2335 23.815 25.2335 23.8296H25.2527L25.5047 24.0001C25.6198 24.044 25.7182 24.1 25.8334 24.1561C26.1813 24.3413 26.5485 24.4119 26.9348 24.4558C27.3979 24.4996 27.6882 24.5557 28.2689 24.5557V24.5581ZM29.3895 29.2851L29.4087 28.5566C29.6031 28.5273 29.8334 28.6565 29.7758 28.8855C29.7375 29.0415 29.5239 29.2291 29.3895 29.2851Z" fill="white"/>
<path fill-rule="evenodd" clip-rule="evenodd" d="M33.8913 12.7279V14.4554H34.8392C35.0719 14.4554 35.2447 14.4115 35.3215 14.3409C35.4366 14.241 35.4966 14.0704 35.4966 13.8268H35.631V15.3399H35.4966C35.4774 15.1255 35.439 14.9963 35.4198 14.9257C35.3815 14.855 35.3239 14.7965 35.2255 14.7551C35.1487 14.7112 35.0119 14.6991 34.8392 14.6991H33.8913V16.1269C33.8913 16.3267 33.8913 16.4412 33.9105 16.4851C33.9297 16.5289 33.9489 16.5557 34.0065 16.585C34.0449 16.6142 34.1217 16.6288 34.2393 16.6288H34.9735C35.2063 16.6288 35.3791 16.6142 35.4966 16.5728C35.6118 16.5436 35.7102 16.4729 35.8254 16.373C35.9405 16.2292 36.0773 16.0294 36.2117 15.7736H36.3461L35.9789 16.8579H32.6532V16.7434H32.8067C32.9027 16.7434 33.0011 16.7141 33.0971 16.6727C33.1739 16.6288 33.2123 16.5874 33.2315 16.5168C33.2507 16.4461 33.2699 16.3023 33.2699 16.0879V13.2615C33.2699 12.9764 33.2507 12.8034 33.1931 12.7474C33.1163 12.6621 32.9795 12.6182 32.8067 12.6182H32.6532V12.4891H35.9789L36.0173 13.4613H35.9022C35.8638 13.2176 35.8062 13.0617 35.7486 12.9764C35.691 12.8911 35.6142 12.8326 35.5158 12.7912C35.4198 12.7474 35.2831 12.7352 35.0719 12.7352H33.8937L33.8913 12.7279ZM27.7437 12.4842H28.9027L31.5518 15.7687V13.2542C31.5518 12.9837 31.5134 12.8107 31.4558 12.74C31.379 12.6548 31.2422 12.6109 31.0887 12.6109H30.9351V12.4818H32.442V12.6109H32.2884C32.0941 12.6109 31.9789 12.6669 31.9021 12.7815C31.8445 12.8521 31.8253 12.9959 31.8253 13.2517V16.9212H31.7101L28.8691 13.4077V16.0928C28.8691 16.3633 28.9075 16.5363 28.9651 16.6069C29.0419 16.6922 29.1594 16.7361 29.3322 16.7361H29.4858V16.8506H27.9789V16.7361H28.1324C28.3268 16.7361 28.442 16.68 28.5188 16.5655C28.5763 16.4948 28.5955 16.3365 28.5955 16.0952V13.0665C28.4612 12.9106 28.382 12.8107 28.3052 12.7668C28.2476 12.723 28.1516 12.6816 28.0148 12.6377C27.9573 12.6231 27.8613 12.6085 27.7437 12.6085V12.4793V12.4842ZM25.4425 12.628C25.0562 12.628 24.7659 12.7717 24.5139 13.0568C24.2236 13.4272 24.0892 13.9559 24.0892 14.643C24.0892 15.3301 24.2428 15.9149 24.5331 16.2999C24.7659 16.585 25.0754 16.7287 25.4617 16.7287C25.8481 16.7287 26.196 16.5728 26.4479 16.2585C26.7191 15.9295 26.8535 15.43 26.8535 14.7454C26.8535 13.9876 26.6999 13.432 26.4096 13.0739C26.1768 12.7742 25.8673 12.6304 25.4425 12.6304V12.628ZM25.5193 12.3989C26.0616 12.3989 26.5439 12.6133 26.9686 13.0422C27.3742 13.471 27.5685 14.0144 27.5685 14.6552C27.5685 15.296 27.3742 15.8686 26.9494 16.2975C26.5439 16.7409 26.04 16.9553 25.4617 16.9553C24.8834 16.9553 24.3603 16.7409 23.974 16.3121C23.5685 15.8979 23.3549 15.3399 23.3549 14.6552C23.3549 13.9705 23.5877 13.3979 24.0508 12.9569C24.4563 12.5865 24.941 12.3989 25.5193 12.3989ZM23.0454 12.4842L23.0838 13.5124H22.9686C22.9494 13.3419 22.911 13.2127 22.8726 13.1275C22.815 12.9983 22.7191 12.913 22.6207 12.857C22.5055 12.801 22.3495 12.7717 22.1768 12.7717H21.5769V16.1001C21.5769 16.3706 21.5961 16.5436 21.6537 16.6142C21.7304 16.6995 21.8672 16.7434 22.0208 16.7434H22.1744V16.8579H20.3579V16.7434H20.5115C20.6866 16.7434 20.821 16.6873 20.8978 16.5728C20.9362 16.5021 20.9554 16.3438 20.9554 16.1025V12.7742H20.4539C20.2403 12.7742 20.1059 12.7888 20.01 12.818C19.914 12.8619 19.8156 12.9325 19.7388 13.0471C19.662 13.1762 19.6044 13.3175 19.6044 13.5173H19.4701L19.5277 12.4891H23.0454V12.4842ZM16.6674 14.6113H16.8402C17.2649 14.6113 17.5744 14.5261 17.7688 14.3409C17.9823 14.1703 18.0975 13.9413 18.0975 13.6562C18.0975 13.3711 18.0015 13.1713 17.8456 12.9983C17.6704 12.8278 17.4401 12.7425 17.1689 12.7425C17.0537 12.7425 16.8786 12.7571 16.6674 12.7985V14.6113ZM19.722 16.853H18.5822L17.1329 14.8111C17.0177 14.8258 16.9194 14.8258 16.8618 14.8258H16.7658C16.7466 14.8258 16.7082 14.8258 16.6698 14.8111V16.083C16.6698 16.3681 16.7082 16.5265 16.7658 16.5972C16.8426 16.6971 16.9601 16.7409 17.1329 16.7409H17.2865V16.8554H15.4508V16.7409H15.6044C15.7988 16.7409 15.9139 16.6849 15.9907 16.5557C16.0483 16.4997 16.0675 16.3413 16.0675 16.0855V13.2712C16.0675 12.9861 16.0291 12.8131 15.9715 12.7571C15.8947 12.6572 15.7772 12.6133 15.6044 12.6133H15.4508V12.4842H17.0153C17.4784 12.4842 17.8072 12.5281 18.0207 12.5987C18.2343 12.6548 18.4263 12.7839 18.5822 12.9691C18.7358 13.1396 18.815 13.3687 18.815 13.6123C18.815 13.8828 18.719 14.1118 18.5438 14.3116C18.3687 14.5114 18.0999 14.6552 17.752 14.7259L18.6422 15.9831C18.8366 16.2682 19.0094 16.468 19.1653 16.5533C19.2997 16.6532 19.4941 16.7093 19.7268 16.7385V16.853H19.722ZM12.9577 12.6255C12.5714 12.6255 12.2618 12.7693 12.0291 13.0544C11.7387 13.4247 11.6044 13.9535 11.6044 14.6406C11.6044 15.3277 11.7387 15.9125 12.0483 16.2975C12.281 16.5825 12.5906 16.7263 12.9577 16.7263C13.3632 16.7263 13.692 16.5704 13.9631 16.256C14.2343 15.9271 14.3494 15.4276 14.3494 14.7429C14.3494 13.9851 14.2151 13.4296 13.9247 13.0714C13.692 12.7717 13.3632 12.628 12.9577 12.628V12.6255ZM13.0153 12.3965C13.5768 12.3965 14.0591 12.6109 14.4646 13.0397C14.8893 13.4686 15.0837 14.0119 15.0837 14.6528C15.0837 15.2936 14.8701 15.8662 14.4646 16.295C14.0591 16.7385 13.5552 16.9529 12.9769 16.9529C12.3986 16.9529 11.8755 16.7385 11.47 16.3097C11.0645 15.8954 10.8701 15.3375 10.8701 14.6528C10.8701 13.9681 11.1029 13.3955 11.566 12.9545C11.9715 12.5841 12.4562 12.3965 13.0153 12.3965ZM7.64271 16.5387C7.89466 16.5947 8.12502 16.624 8.37697 16.624C8.76329 16.624 9.05364 16.5387 9.2456 16.3681C9.43997 16.1976 9.55514 15.9831 9.55514 15.7102C9.55514 15.5543 9.49756 15.3813 9.42077 15.2254C9.32479 15.0694 9.16882 14.9549 8.97685 14.855C8.76329 14.7697 8.51374 14.7259 8.2042 14.7259H7.87546C7.77948 14.7405 7.7027 14.7405 7.64271 14.7551V16.5411V16.5387ZM7.64271 14.453C7.71949 14.4676 7.81547 14.4822 7.91385 14.4822C8.00984 14.4968 8.12742 14.4968 8.24259 14.4968C8.55213 14.4968 8.78489 14.4676 8.93846 14.3969C9.09203 14.3263 9.20961 14.2264 9.30559 14.0826C9.38238 13.9535 9.42077 13.7975 9.42077 13.6245C9.42077 13.3687 9.32479 13.1543 9.11123 12.9813C8.91687 12.7961 8.60972 12.7108 8.221 12.7108C8.00744 12.7108 7.81547 12.7254 7.64031 12.7815V14.453H7.64271ZM9.30559 14.6235C9.61513 14.6942 9.82629 14.7941 9.98226 14.9378C10.1766 15.1377 10.2918 15.3813 10.2918 15.6664C10.2918 15.8808 10.215 16.0806 10.0782 16.2804C9.94387 16.4802 9.7687 16.624 9.51675 16.7239C9.284 16.8092 8.93606 16.853 8.45375 16.853H6.40454V16.7385H6.57971C6.75248 16.7385 6.88925 16.6824 6.96603 16.5679C7.00443 16.4973 7.04282 16.3243 7.04282 16.083V13.2688C7.04282 12.9983 7.00443 12.8253 6.94684 12.7547C6.87005 12.6548 6.73328 12.6109 6.57971 12.6109H6.40454V12.4818H8.27859C8.62652 12.4818 8.89767 12.511 9.10883 12.567C9.41837 12.6377 9.67032 12.7815 9.82389 12.9813C9.99666 13.1664 10.0758 13.3955 10.0758 13.6513C10.0758 13.8804 10.0183 14.0655 9.88148 14.2361C9.74711 14.4067 9.55275 14.5358 9.30079 14.6211L9.30559 14.6235Z" fill="white"/>
<path fill-rule="evenodd" clip-rule="evenodd" d="M21.8935 6.60073C22.1646 6.67139 22.395 6.92967 22.4166 7.27079C22.4357 7.71425 22.107 8.06999 21.6823 8.08461C21.2576 8.11385 20.8904 7.77029 20.8712 7.34145C20.8521 6.98327 21.0848 6.71281 21.3344 6.61291C21.0056 5.95503 20.4441 4.92679 18.5893 4.08616C18.7237 3.90098 19.014 3.57204 19.17 3.2431C19.8274 3.6427 20.6961 4.65633 21.1424 5.48477H21.1808C21.1616 5.02669 20.8137 3.67194 19.6163 2.58522C19.7507 2.3708 19.9834 2.0711 20.137 1.7714C20.5617 2.0711 21.0464 3.2431 21.4327 4.84151L21.4519 4.82689C21.4711 4.06911 21.2384 2.12714 20.6985 0.984383C20.8736 0.784583 21.1616 0.355742 21.356 0C21.5887 0.343559 21.8983 0.728541 22.071 0.928341C21.6271 2.11252 21.5479 4.06911 21.6271 4.82689H21.6655C21.8983 3.21386 22.3038 2.00044 22.6901 1.65688C22.8845 1.94196 23.134 2.22704 23.29 2.42685C22.1886 3.61103 21.9558 4.98283 21.975 5.45553H21.9942C22.3806 4.58323 23.1724 3.51357 23.7723 3.0433C23.9667 3.35762 24.2738 3.67194 24.4298 3.82789C22.6517 4.84151 22.1694 5.91361 21.8983 6.59829M13.1039 3.81327H13.0847C12.3313 3.81327 11.5586 3.95702 10.7836 4.19825C9.83574 4.49795 7.07146 5.66995 6.06605 6.02569C4.7511 6.48377 3.86327 6.62509 2.91545 6.51057C3.39776 7.29516 4.28799 7.60948 5.31259 7.60948C6.20283 7.60948 7.10985 7.36582 8.07687 7.08074C8.92631 6.81027 11.3618 5.85269 12.696 5.43847C14.0109 4.99501 14.822 4.88049 15.3451 4.88049C14.9204 4.23723 14.0301 3.80839 13.1039 3.80839V3.81327ZM19.038 7.95547C18.786 7.95547 18.5149 7.81171 18.3421 7.64115C18.2078 7.48521 18.2078 7.34145 18.3229 7.25617C18.5941 7.08561 18.6901 6.81271 18.6901 6.55687C18.6901 5.87219 17.8406 5.32883 17.008 5.32883H16.9888C16.2737 5.32883 15.6354 5.41411 14.5149 5.72843C13.2983 6.08661 10.2821 7.22693 9.31504 7.54125C8.03848 7.97009 7.07386 8.22593 6.06845 8.22593C4.69591 8.22593 3.28498 7.66795 1.87405 6.29859C1.12059 6.01351 0 5.37025 0 4.41267C0 4.06911 0.271149 3.59885 0.772654 3.59885C1.21657 3.59885 1.46852 3.99845 1.46852 4.26891C1.46852 4.35419 1.41093 4.45409 1.31495 4.52475C1.16138 4.62465 1.0438 4.80983 1.0438 5.06811C1.0438 5.78203 1.95323 5.99645 2.58911 5.99645C3.38096 5.99645 4.52314 5.68213 5.85489 5.18263C7.11225 4.66851 8.90951 3.98383 9.37263 3.81083C9.89333 3.62565 10.9179 3.28209 12.0601 3.28209C13.1039 3.28209 14.534 3.52575 16.3121 4.83907C17.1616 4.88293 17.8982 5.08273 18.7477 5.68213C19.5587 6.25229 19.7723 6.86632 19.7723 7.15383C19.7723 7.68257 19.3475 7.95303 19.038 7.95303V7.95547ZM37.0346 6.02813C36.0292 5.66995 33.2649 4.50038 32.3387 4.20068C31.5468 3.95702 30.7742 3.8157 30.0183 3.8157H29.9991C29.0705 3.8157 28.1827 4.24454 27.7579 4.8878C28.281 4.8878 29.0921 5.00232 30.407 5.44578C31.7412 5.86 34.1767 6.81758 35.0262 7.08805C35.9932 7.37313 36.9002 7.61679 37.7904 7.61679C38.815 7.61679 39.7029 7.30247 40.1876 6.51788C39.2398 6.6324 38.3519 6.48864 37.037 6.033L37.0346 6.02813ZM41.229 6.29859C39.8181 7.67039 38.4071 8.22593 37.0346 8.22593C36.0292 8.22593 35.0622 7.96766 33.788 7.54125C32.8402 7.22693 29.8072 6.08417 28.5882 5.72843C27.4676 5.41411 26.8293 5.32883 26.1143 5.32883H26.0951C25.2648 5.32883 24.413 5.87219 24.413 6.55687C24.413 6.81271 24.509 7.08561 24.7801 7.25617C24.9145 7.34145 24.9145 7.48521 24.7609 7.64115C24.5881 7.81171 24.317 7.95547 24.065 7.95547C23.7555 7.95547 23.3308 7.68501 23.3308 7.15627C23.3308 6.87119 23.5443 6.25717 24.3554 5.68457C25.2048 5.08517 25.9415 4.88537 26.7909 4.84151C28.569 3.52818 29.9991 3.28453 31.0429 3.28453C32.2019 3.28453 33.2073 3.62809 33.7304 3.81327C34.1935 3.98383 35.9908 4.67095 37.2481 5.18507C38.5823 5.68457 39.7413 5.99889 40.5139 5.99889C41.1522 5.99889 42.0592 5.78447 42.0592 5.07055C42.0592 4.8147 41.9441 4.62709 41.7881 4.52719C41.6921 4.45653 41.6345 4.35663 41.6345 4.27135C41.6345 4.00088 41.8865 3.60128 42.3304 3.60128C42.8319 3.60128 43.103 4.07155 43.103 4.4151C43.103 5.37268 41.9824 6.01351 41.229 6.30103V6.29859Z" fill="white"/>
<path d="M58.4333 13.0416H55.8562C55.5011 12.391 54.8484 12.045 53.975 12.045C52.4752 12.045 51.4794 13.1244 51.4794 14.813C51.4794 16.6112 52.4872 17.6638 54.1645 17.6638C55.3235 17.6638 56.1274 17.04 56.4801 15.9484H53.5214V14.2038H58.5917V16.4041C58.1022 18.078 56.5065 19.7544 53.9846 19.7544C51.1219 19.7544 49.1039 17.7198 49.1039 14.813C49.1039 11.9061 51.1075 9.85938 53.9702 9.85938C56.2593 9.85938 57.9222 11.0484 58.4285 13.0416H58.4333Z" fill="white"/>
<path d="M63.809 9.96728C66.1533 9.96728 67.3267 11.3366 67.3267 13.0252C67.3267 14.2435 66.6716 15.3936 65.2007 15.8346L67.4083 19.682H64.7784L62.7892 16.0149H62.2301V19.682H59.8977V9.96484H63.809V9.96728ZM63.6722 11.9336H62.2277V14.341H63.6722C64.5456 14.341 64.9535 13.8829 64.9535 13.1227C64.9535 12.4039 64.5432 11.9336 63.6722 11.9336Z" fill="white"/>
<path d="M68.7496 9.96875H71.0796V15.7825C71.0796 16.9325 71.6386 17.5953 72.7424 17.5953C73.8462 17.5953 74.4317 16.9301 74.4317 15.7825V9.96875H76.7617V15.7678C76.7617 18.453 74.9092 19.7809 72.6992 19.7809C70.4893 19.7809 68.7472 18.453 68.7472 15.7678V9.96875H68.7496Z" fill="white"/>
<path d="M82.1798 16.1967H80.7353V19.6859H78.403V9.96875H82.1798C84.5242 9.96875 85.6976 11.3113 85.6976 13.0973C85.6976 14.703 84.6202 16.1967 82.1798 16.1967ZM82.0023 14.3156C82.9285 14.3156 83.3244 13.8454 83.3244 13.0973C83.3244 12.3493 82.9285 11.879 82.0023 11.879H80.7353V14.3156H82.0023Z" fill="white"/>
<path d="M91.4393 19.7811C88.7278 19.7811 86.5178 17.7198 86.5178 14.7983C86.5178 11.8768 88.7254 9.83008 91.4393 9.83008C94.1532 9.83008 96.332 11.8793 96.332 14.7983C96.332 17.7173 94.1508 19.7811 91.4393 19.7811ZM91.4393 17.6223C92.9654 17.6223 93.9612 16.5015 93.9612 14.7983C93.9612 13.0951 92.9654 11.9743 91.4393 11.9743C89.9132 11.9743 88.9054 13.0683 88.9054 14.7983C88.9054 16.5283 89.8868 17.6223 91.4393 17.6223Z" fill="white"/>
<path d="M53.9608 33.2913H49.5024V23.5742H53.8096C55.7605 23.5742 56.917 24.5562 56.917 26.0937C56.917 27.2705 56.2212 28.0307 55.2949 28.3085C56.4131 28.5449 57.1354 29.5414 57.1354 30.6476C57.1354 32.2534 55.9764 33.2913 53.9584 33.2913H53.9608ZM53.3609 25.4723H51.8348V27.5069H53.3609C54.124 27.5069 54.5463 27.1609 54.5463 26.4957C54.5463 25.8305 54.124 25.4723 53.3609 25.4723ZM53.5241 29.2369H51.8348V31.3811H53.5529C54.3303 31.3811 54.779 31.0204 54.779 30.3285C54.779 29.6365 54.3015 29.2344 53.5241 29.2344V29.2369Z" fill="white"/>
<path d="M63.0189 33.3885C60.3074 33.3885 58.0974 31.3272 58.0974 28.4057C58.0974 25.4842 60.305 23.4375 63.0189 23.4375C65.7328 23.4375 67.9116 25.4867 67.9116 28.4057C67.9116 31.3247 65.7304 33.3885 63.0189 33.3885ZM63.0189 31.2297C64.545 31.2297 65.5408 30.1089 65.5408 28.4057C65.5408 26.7025 64.545 25.5817 63.0189 25.5817C61.4928 25.5817 60.485 26.6757 60.485 28.4057C60.485 30.1357 61.4664 31.2297 63.0189 31.2297Z" fill="white"/>
<path d="M73.1238 23.5747C75.4681 23.5747 76.6415 24.9441 76.6415 26.6326C76.6415 27.8509 75.9864 29.001 74.5155 29.442L76.7231 33.2894H74.0932L72.104 29.6223H71.5449V33.2894H69.2125V23.5723H73.1238V23.5747ZM72.987 25.541H71.5425V27.9484H72.987C73.8604 27.9484 74.2684 27.4903 74.2684 26.7301C74.2684 26.0113 73.858 25.541 72.987 25.541Z" fill="white"/>
<path d="M77.5868 23.5742H84.987V25.4699H82.4531V33.2889H80.1231V25.4699H77.5892V23.5742H77.5868Z" fill="white"/>
<path d="M90.6883 33.3885C87.9768 33.3885 85.7668 31.3272 85.7668 28.4057C85.7668 25.4842 87.9744 23.4375 90.6883 23.4375C93.4022 23.4375 95.581 25.4867 95.581 28.4057C95.581 31.3247 93.3998 33.3885 90.6883 33.3885ZM90.6883 31.2297C92.2144 31.2297 93.2102 30.1089 93.2102 28.4057C93.2102 26.7025 92.2144 25.5817 90.6883 25.5817C89.1622 25.5817 88.1544 26.6757 88.1544 28.4057C88.1544 30.1357 89.1358 31.2297 90.6883 31.2297Z" fill="white"/>
<path d="M105.443 23.5742V33.2913H103.113L99.2158 27.2973V33.2913H96.8834V23.5742H99.2158L103.113 29.595V23.5742H105.443Z" fill="white"/>
<path d="M113 25.4699H109.47V27.4362H112.592V29.2637H109.47V31.3957H113V33.2913H107.138V23.5742H113V25.4699Z" fill="white"/>
</svg>
