<svg width="440" height="249" viewBox="0 0 440 249" fill="none" xmlns="http://www.w3.org/2000/svg">
<path d="M-196.174 11.0742L401.47 -125.184L451.142 88.6703C393.882 111.495 333.428 125.421 271.88 129.964L269.132 130.167L146.831 134.691C100.15 136.418 55.3883 153.419 19.4402 183.075C-9.50738 206.957 -44.3028 222.736 -81.4069 228.808L-143.251 238.928L-196.174 11.0742Z" fill="#F39200"/>
<path d="M-132.379 -60.251L479.72 -96.8695L492.852 122.207C432.57 135.352 370.631 139.197 309.184 133.608L306.44 133.359L185.088 117.809C138.776 111.874 91.7993 121.32 51.3839 144.692C18.8386 163.513 -18.1097 173.384 -55.7073 173.303L-118.387 173.167L-132.379 -60.251Z" fill="url(#paint0_linear_870_4778)"/>
<defs>
<linearGradient id="paint0_linear_870_4778" x1="173.67" y1="-78.5602" x2="188.078" y2="162.277" gradientUnits="userSpaceOnUse">
<stop stop-color="#324587"/>
<stop offset="1" stop-color="#0C1121"/>
</linearGradient>
</defs>
</svg>
